<svg xmlns="http://www.w3.org/2000/svg" width="64" height="52" viewBox="0 0 64 52">
    <g fill="none" fill-rule="evenodd">
        <path d="M0-6h64v64H0z"/>
        <path fill="#FFF" fill-rule="nonzero" d="M30.642 48.432l-.18 1.583h3.013l-.181-1.583h-2.652zm-2.01 0H24.16c-1.083 0-1.964-.87-1.964-1.94V35.685c0-1.069.88-1.939 1.964-1.939h6.808v-6.621H10.77v6.621h6.808c1.082 0 1.964.87 1.963 1.94v10.808c0 1.069-.88 1.939-1.964 1.939h-4.47l.182 1.583h1.281V52H4.972v-1.985h1.282l.18-1.583h-4.47c-1.083 0-1.964-.87-1.964-1.94V35.685c0-1.07.881-1.939 1.964-1.939h6.808v-7.57a1.01 1.01 0 0 1 0-.088v-.02h.001a.993.993 0 0 1 .99-.928H30.97v-6.884h-3.8V16.27h1.282l.18-1.583h-4.47c-1.083 0-1.964-.87-1.964-1.94V1.94C22.197.87 23.077 0 24.16 0h15.614c1.083 0 1.964.87 1.963 1.94v10.808c0 1.069-.88 1.939-1.964 1.939h-4.47l.181 1.583h1.282v1.985h-3.8v6.884h21.205c.527 0 .958.41.99.928h.002v.019a1.01 1.01 0 0 1 0 .091v7.568h6.872c1.083 0 1.964.87 1.964 1.94v10.808c0 1.069-.881 1.939-1.964 1.939h-4.47l.18 1.583h1.283V52h-9.598v-1.985h1.281l.181-1.583h-4.47c-1.083 0-1.964-.87-1.964-1.94V35.685c0-1.069.88-1.939 1.964-1.939h6.743v-6.621H32.967v6.621h6.808c1.083 0 1.964.87 1.963 1.94v10.808c0 1.069-.88 1.939-1.964 1.939h-4.47l.181 1.583h1.282V52H27.17v-1.985h1.282l.18-1.583zm2.01-33.745l-.18 1.583h3.013l-.181-1.583h-2.652zM8.445 48.432l-.18 1.583h3.013l-.181-1.583H8.445zm44.459 0l-.18 1.583h3.011l-.18-1.583h-2.651zm9.098-12.702H46.457v10.718h15.545V35.73zm-44.458 0H1.998v10.718h15.546V35.73zM39.741 1.985H24.195v10.718H39.74V1.985zm0 33.745H24.195v10.718H39.74V35.73z"/>
    </g>
</svg>
