<?xml version="1.0" encoding="utf-8"?>
<!-- Generator: Adobe Illustrator 15.1.0, SVG Export Plug-In . SVG Version: 6.00 Build 0)  -->
<!DOCTYPE svg PUBLIC "-//W3C//DTD SVG 1.1//EN" "http://www.w3.org/Graphics/SVG/1.1/DTD/svg11.dtd">
<svg version="1.1" id="Layer_1" xmlns="http://www.w3.org/2000/svg" xmlns:xlink="http://www.w3.org/1999/xlink" x="0px" y="0px"
	 width="60px" height="60px" viewBox="0 0 60 60" enable-background="new 0 0 60 60" xml:space="preserve">
<g>
	<path fill="#5E6066" d="M43.417,41.561H16.583c-2.733,0-4.956-2.225-4.956-4.957v-18.25c0-2.732,2.223-4.956,4.956-4.956h26.834
		c2.732,0,4.956,2.224,4.956,4.956v18.25C48.373,39.336,46.149,41.561,43.417,41.561z M16.583,15.31
		c-1.678,0-3.044,1.365-3.044,3.044v18.25c0,1.68,1.366,3.045,3.044,3.045h26.834c1.678,0,3.044-1.365,3.044-3.045v-18.25
		c0-1.679-1.366-3.044-3.044-3.044H16.583z"/>
	<path fill="#5E6066" d="M39.562,46.602h-19c-0.528,0-0.956-0.428-0.956-0.955c0-0.529,0.428-0.957,0.956-0.957h19
		c0.528,0,0.956,0.428,0.956,0.957C40.518,46.174,40.09,46.602,39.562,46.602z"/>
	<path fill="#5E6066" d="M47.417,35.811H12.583c-0.528,0-0.956-0.428-0.956-0.957c0-0.527,0.428-0.955,0.956-0.955h34.834
		c0.528,0,0.956,0.428,0.956,0.955C48.373,35.383,47.945,35.811,47.417,35.811z"/>
</g>
</svg>
