<?xml version="1.0" encoding="utf-8"?>
<!-- Generator: Adobe Illustrator 15.1.0, SVG Export Plug-In . SVG Version: 6.00 Build 0)  -->
<!DOCTYPE svg PUBLIC "-//W3C//DTD SVG 1.1//EN" "http://www.w3.org/Graphics/SVG/1.1/DTD/svg11.dtd">
<svg version="1.1" id="Layer_1" xmlns="http://www.w3.org/2000/svg" xmlns:xlink="http://www.w3.org/1999/xlink" x="0px" y="0px"
	 width="60px" height="60px" viewBox="0 0 60 60" enable-background="new 0 0 60 60" xml:space="preserve">
<g id="Page-1_3_">
	<g id="daedaluswallet.io_3_" transform="translate(-1968.000000, -8438.000000)">
		<g id="row-4" transform="translate(720.000000, 7500.000000)">
			<g id="features_2_" transform="translate(0.000000, 566.000000)">
				<g id="settings-ic" transform="translate(1200.000000, 326.000000)">
					<path fill="#5E6066" d="M87.25,77.682h-18.5c-4.643,0-8.408,3.764-8.408,8.41c0,4.642,3.766,8.408,8.408,8.408h18.5
						c4.645,0,8.408-3.767,8.408-8.408C95.658,81.445,91.895,77.682,87.25,77.682L87.25,77.682z M87.25,92.818h-18.5
						c-3.715,0-6.727-3.014-6.727-6.727c0-3.716,3.011-6.729,6.727-6.729h18.5c3.715,0,6.727,3.014,6.727,6.729
						C93.977,89.805,90.965,92.818,87.25,92.818L87.25,92.818z M87.25,57.5h-18.5c-4.643,0-8.408,3.764-8.408,8.408
						c0,4.643,3.766,8.41,8.408,8.41h18.5c4.645,0,8.408-3.768,8.408-8.41C95.658,61.264,91.895,57.5,87.25,57.5L87.25,57.5z
						 M87.25,72.638h-18.5c-3.715,0-6.727-3.015-6.727-6.729c0-3.713,3.011-6.727,6.727-6.727h18.5c3.715,0,6.727,3.014,6.727,6.727
						C93.977,69.623,90.965,72.638,87.25,72.638L87.25,72.638z M87.25,81.046c-2.785,0-5.045,2.259-5.045,5.046
						c0,2.783,2.26,5.046,5.045,5.046c2.787,0,5.045-2.263,5.045-5.046C92.295,83.305,90.037,81.046,87.25,81.046L87.25,81.046z
						 M87.25,89.454c-1.857,0-3.363-1.507-3.363-3.362c0-1.859,1.506-3.365,3.363-3.365s3.363,1.506,3.363,3.365
						C90.613,87.947,89.107,89.454,87.25,89.454L87.25,89.454z M68.75,60.862c-2.786,0-5.045,2.261-5.045,5.046
						s2.26,5.046,5.045,5.046c2.787,0,5.045-2.261,5.045-5.046C73.795,63.121,71.537,60.862,68.75,60.862L68.75,60.862z
						 M68.75,69.271c-1.857,0-3.364-1.504-3.364-3.363c0-1.856,1.506-3.362,3.364-3.362s3.364,1.506,3.364,3.362
						C72.114,67.768,70.607,69.271,68.75,69.271L68.75,69.271z"/>
				</g>
			</g>
		</g>
	</g>
</g>
</svg>
