<?xml version="1.0" encoding="utf-8"?>
<!-- Generator: Adobe Illustrator 15.1.0, SVG Export Plug-In . SVG Version: 6.00 Build 0)  -->
<!DOCTYPE svg PUBLIC "-//W3C//DTD SVG 1.1//EN" "http://www.w3.org/Graphics/SVG/1.1/DTD/svg11.dtd">
<svg version="1.1" id="Layer_1" xmlns="http://www.w3.org/2000/svg" xmlns:xlink="http://www.w3.org/1999/xlink" x="0px" y="0px"
	 width="60px" height="60px" viewBox="0 0 60 60" enable-background="new 0 0 60 60" xml:space="preserve">
<g>
	<path fill="#5E6066" d="M12.014,29.143c2.223,0,2.54-1.238,2.572-2.35c0-0.889-0.127-1.778-0.254-2.636
		c-0.127-0.921-0.254-1.81-0.254-2.667c0-2.922,1.937-4.16,4.636-4.16h0.635v1.747H18.81c-1.874,0.031-2.541,1.016-2.541,2.73
		c0,0.73,0.127,1.492,0.223,2.255c0.127,0.793,0.254,1.556,0.254,2.413c0.032,2.032-0.889,3.048-2.318,3.429v0.064
		c1.43,0.381,2.318,1.429,2.318,3.461c0,0.857-0.127,1.651-0.254,2.444c-0.096,0.763-0.223,1.524-0.223,2.287
		c0,1.777,0.763,2.73,2.541,2.762h0.539v1.747h-0.667c-2.604,0-4.604-1.144-4.604-4.351c0-0.857,0.127-1.746,0.285-2.604
		c0.096-0.89,0.223-1.747,0.223-2.572c0-1.016-0.317-2.382-2.572-2.382V29.143z"/>
	<path fill="#5E6066" d="M21.793,37.462c0-1.143,0.794-2,1.905-2c1.112,0,1.874,0.825,1.874,2c0,1.144-0.762,2.001-1.938,2.001
		C22.555,39.463,21.793,38.605,21.793,37.462z"/>
	<path fill="#5E6066" d="M28.365,37.462c0-1.143,0.793-2,1.905-2c1.111,0,1.873,0.825,1.873,2c0,1.144-0.762,2.001-1.937,2.001
		C29.127,39.463,28.365,38.605,28.365,37.462z"/>
	<path fill="#5E6066" d="M34.938,37.462c0-1.143,0.793-2,1.904-2s1.873,0.825,1.873,2c0,1.144-0.762,2.001-1.937,2.001
		C35.699,39.463,34.938,38.605,34.938,37.462z"/>
	<path fill="#5E6066" d="M47.986,30.762c-2.223,0-2.54,1.366-2.572,2.382c0,0.825,0.127,1.683,0.254,2.572
		c0.127,0.857,0.254,1.746,0.254,2.604c0,3.207-2,4.351-4.604,4.351h-0.667v-1.747h0.54c1.777-0.031,2.54-0.984,2.54-2.762
		c0-0.763-0.127-1.524-0.222-2.287c-0.128-0.793-0.255-1.587-0.255-2.444c-0.032-2.032,0.89-3.08,2.318-3.461v-0.064
		c-1.429-0.381-2.318-1.396-2.318-3.429c0-0.857,0.127-1.62,0.255-2.413c0.095-0.763,0.222-1.524,0.222-2.255
		c0-1.715-0.667-2.699-2.54-2.73h-0.54V17.33h0.635c2.699,0,4.636,1.238,4.636,4.16c0,0.857-0.127,1.746-0.254,2.667
		c-0.127,0.857-0.254,1.747-0.254,2.636c0,1.111,0.318,2.35,2.572,2.35V30.762z"/>
</g>
</svg>
