<svg xmlns="http://www.w3.org/2000/svg" width="56" height="65" viewBox="0 0 56 65">
    <g fill="none" fill-rule="evenodd">
        <path d="M-4 0h64v64H-4z"/>
        <path fill="#FFF" d="M55.071 15.76L28.391.157c-.351-.21-.79-.21-1.146 0L.572 15.759C.214 15.97 0 16.356 0 16.767v31.222c0 .415.214.799.572 1.007l26.673 15.61a1.144 1.144 0 0 0 1.145 0l26.681-15.61c.35-.21.565-.592.565-1.007V16.767c0-.42-.214-.797-.565-1.008zM11.15 12.255l24.385 14.27-7.714 4.509L3.443 16.769l7.706-4.513zm6.65-3.896l24.386 14.27-4.35 2.552-24.384-14.27L17.8 8.36zm21.184 18.835l4.349-2.548v8.533l-2.172-.013a1.15 1.15 0 0 0-.867.399l-1.31 1.544v-7.915zM27.818 2.509l24.385 14.258-1.149.669-6.573 3.85-24.377-14.27 7.714-4.507zM2.296 18.78l24.373 14.27v28.537L2.296 47.316V18.78zm51.052 28.537l-24.385 14.27V33.05l7.722-4.513v9.684c0 .492.301.927.744 1.088.13.052.266.073.405.073.032 0 .047-.037.092-.048.29-.025.572-.117.772-.35l2.98-3.496 2.8.012c.306 0 .598-.128.811-.346.222-.217.335-.508.335-.818V23.303l7.722-4.523v28.536h.002z"/>
    </g>
</svg>
