<svg xmlns="http://www.w3.org/2000/svg" width="56" height="64" viewBox="0 0 56 64">
    <g fill="none" fill-rule="evenodd">
        <path d="M-4 0h64v64H-4z"/>
        <path stroke="#FFF" stroke-width="2" d="M30.91 62.106c2.641-1.135 3.94-1.724 5.44-2.504 6.011-3.168 10.536-6.892 13.856-11.394 2.957-4.002 4.47-7.991 4.648-12.23.04-.853.066-1.748.08-2.742L55 25.02v-3.34c0-4.025-.002-5.806-.013-8.029v-.01c0-1.998-1.133-3.263-3.18-3.52-.213-.03-.44-.059-.705-.09l-.732-.082-.706-.085c-1.634-.196-2.498-.322-3.456-.53-5.202-1.136-10.218-3.471-15.73-7.317C29.473 1.313 28.76 1 28.01 1c-.735 0-1.438.307-2.463 1.01-7.398 5.069-14.089 7.654-21.02 8.09-2.392.153-3.52 1.364-3.52 3.78v5.3c-.016 5.948-.007 10.5.04 14.896.013 1.751.239 3.594.669 5.493.997 4.362 3.278 8.298 6.993 12.042 4.681 4.722 10.56 8.373 17.979 11.158.414.152.845.231 1.282.231.551 0 1.11-.116 1.59-.324.197-.088.4-.177.652-.282.123-.052.548-.228.697-.288z"/>
        <path fill="#FFF" fill-rule="nonzero" d="M13.317 18.912a1.25 1.25 0 1 1 0-2.5 1.25 1.25 0 0 1 0 2.5zm29.218 0a1.25 1.25 0 1 1 0-2.5 1.25 1.25 0 0 1 0 2.5zM13.318 47.626a1.25 1.25 0 1 1 0-2.5 1.25 1.25 0 0 1 0 2.5zm29.217 0a1.25 1.25 0 1 1 0-2.5 1.25 1.25 0 0 1 0 2.5zm-26.74-23.828l-.268-.27a2.445 2.445 0 0 1 0-3.447l.78-.78a2.446 2.446 0 0 1 3.448 0l.337.337a14.568 14.568 0 0 1 7.834-2.279c2.947 0 5.692.878 7.993 2.381l.439-.439a2.446 2.446 0 0 1 3.448 0l.78.78c.949.948.949 2.5 0 3.448l-.426.427a14.568 14.568 0 0 1 2.426 8.064c0 2.879-.839 5.565-2.279 7.833l.28.28c.948.948.948 2.5 0 3.448l-.78.78c-.949.948-2.5.948-3.448 0l-.212-.211a14.574 14.574 0 0 1-8.221 2.529 14.57 14.57 0 0 1-8.064-2.426l-.108.108c-.949.948-2.5.948-3.449 0l-.779-.78a2.444 2.444 0 0 1 0-3.448l.12-.121a14.565 14.565 0 0 1-2.38-7.992c0-3.046.935-5.877 2.53-8.223zM40.43 32.02c0-6.893-5.607-12.501-12.5-12.501-6.892 0-12.5 5.608-12.5 12.5 0 6.893 5.607 12.5 12.5 12.5s12.5-5.607 12.5-12.5zm-13.934.05a3.29 3.29 0 0 1 1.43-6.255 3.291 3.291 0 1 1 1.43 6.255l.987 6.151h-4.834l.987-6.151z"/>
    </g>
</svg>
