<?xml version="1.0" encoding="utf-8"?>
<!-- Generator: Adobe Illustrator 15.1.0, SVG Export Plug-In . SVG Version: 6.00 Build 0)  -->
<!DOCTYPE svg PUBLIC "-//W3C//DTD SVG 1.1//EN" "http://www.w3.org/Graphics/SVG/1.1/DTD/svg11.dtd">
<svg version="1.1" id="Layer_1" xmlns="http://www.w3.org/2000/svg" xmlns:xlink="http://www.w3.org/1999/xlink" x="0px" y="0px"
	 width="60px" height="60px" viewBox="0 0 60 60" enable-background="new 0 0 60 60" xml:space="preserve">
<g>
	<g>
		<g>
			<path fill="#5E6066" d="M24.314,18.063c-5.471-0.996-9.797,0.047-11.521,3.032c-1.287,2.23-0.919,5.185,0.892,8.342
				c0.155,0.27,0.497,0.362,0.766,0.209c0.269-0.155,0.362-0.497,0.208-0.767c-1.631-2.846-1.948-5.394-0.893-7.223
				c1.432-2.479,5.291-3.41,10.348-2.49c0.305,0.057,0.597-0.146,0.652-0.45C24.822,18.411,24.619,18.12,24.314,18.063
				L24.314,18.063L24.314,18.063z M16.53,33.277c2.213,2.431,5.087,4.711,8.365,6.604c7.938,4.583,16.387,5.807,20.551,2.969
				c0.256-0.175,0.322-0.524,0.146-0.78c-0.174-0.256-0.523-0.322-0.779-0.146c-3.727,2.541-11.752,1.377-19.357-3.013
				c-3.18-1.837-5.963-4.045-8.095-6.388c-0.208-0.23-0.563-0.247-0.792-0.038S16.321,33.048,16.53,33.277L16.53,33.277
				L16.53,33.277z"/>
			<path fill="#5E6066" d="M39.494,44.618C39.494,44.618,39.494,44.618,39.494,44.618c-4.383,0-9.75-1.648-14.725-4.521
				c-3.267-1.887-6.18-4.187-8.425-6.652c-0.3-0.33-0.276-0.845,0.054-1.146c0.319-0.291,0.858-0.263,1.146,0.055
				c2.129,2.341,4.908,4.532,8.035,6.339C30.322,41.431,35.397,43,39.506,43c2.148,0,3.935-0.444,5.166-1.284
				c0.355-0.241,0.885-0.145,1.127,0.213c0.121,0.178,0.168,0.394,0.127,0.606c-0.039,0.214-0.16,0.398-0.34,0.521
				C44.086,44.078,41.98,44.618,39.494,44.618z M16.944,32.588c-0.077,0-0.151,0.029-0.208,0.081
				c-0.127,0.116-0.136,0.313-0.021,0.44c2.21,2.428,5.082,4.694,8.305,6.555c4.901,2.83,10.177,4.454,14.475,4.454l0,0
				c2.385,0,4.395-0.51,5.811-1.476c0.068-0.047,0.115-0.117,0.13-0.199c0.016-0.082-0.002-0.164-0.049-0.232
				c-0.093-0.139-0.295-0.177-0.431-0.082c-1.316,0.896-3.2,1.371-5.449,1.371c-4.193,0-9.36-1.594-14.176-4.373
				c-3.171-1.832-5.991-4.058-8.155-6.437C17.115,32.624,17.033,32.588,16.944,32.588z M14.173,29.971
				c-0.291,0-0.561-0.157-0.705-0.409c-1.88-3.277-2.197-6.328-0.891-8.591c1.312-2.272,4.13-3.523,7.934-3.523
				c1.204,0,2.499,0.124,3.849,0.37c0.439,0.082,0.732,0.505,0.652,0.944c-0.07,0.386-0.406,0.665-0.796,0.665l0,0
				c-0.048,0-0.099-0.005-0.147-0.014c-1.254-0.229-2.449-0.344-3.554-0.344c-3.202,0-5.522,0.964-6.533,2.713
				c-1.004,1.74-0.687,4.217,0.894,6.974c0.221,0.388,0.087,0.884-0.3,1.107C14.452,29.934,14.313,29.971,14.173,29.971z
				 M20.511,17.947c-3.618,0-6.282,1.162-7.501,3.273c-1.212,2.102-0.896,4.976,0.892,8.093c0.082,0.144,0.279,0.197,0.425,0.116
				c0.148-0.086,0.2-0.277,0.115-0.426c-1.672-2.917-1.989-5.57-0.892-7.472c1.103-1.911,3.577-2.963,6.965-2.963
				c1.135,0,2.361,0.118,3.644,0.352c0.205,0.004,0.334-0.103,0.362-0.25c0.03-0.167-0.083-0.33-0.251-0.361
				C22.949,18.069,21.685,17.947,20.511,17.947z"/>
		</g>
		<g>
			<path fill="#5E6066" d="M44.117,32.595c3.582-4.232,4.832-8.489,3.112-11.469c-1.267-2.193-3.943-3.352-7.499-3.396
				c-0.31-0.004-0.564,0.243-0.569,0.554c-0.004,0.31,0.245,0.563,0.554,0.567c3.199,0.041,5.506,1.038,6.543,2.836
				c1.429,2.476,0.314,6.271-2.998,10.184c-0.199,0.235-0.171,0.591,0.066,0.791C43.562,32.86,43.916,32.831,44.117,32.595
				L44.117,32.595L44.117,32.595z M34.91,18.251c-3.24,0.693-6.688,2.051-9.999,3.963c-8.193,4.73-13.538,11.705-12.795,16.764
				c0.044,0.306,0.33,0.518,0.637,0.473c0.306-0.045,0.518-0.33,0.473-0.636c-0.659-4.491,4.407-11.103,12.246-15.629
				c3.213-1.854,6.552-3.169,9.673-3.838c0.303-0.064,0.496-0.362,0.431-0.666C35.511,18.379,35.213,18.187,34.91,18.251
				L34.91,18.251L34.91,18.251z"/>
			<path fill="#5E6066" d="M12.67,39.706c-0.399,0-0.744-0.298-0.802-0.692c-0.762-5.188,4.55-12.186,12.918-17.017
				c3.304-1.907,6.787-3.288,10.071-3.99c0.43-0.1,0.871,0.195,0.963,0.623c0.045,0.211,0.006,0.429-0.112,0.61
				s-0.3,0.307-0.513,0.352c-3.119,0.669-6.439,1.986-9.599,3.811c-7.682,4.436-12.78,10.902-12.124,15.376
				c0.031,0.214-0.023,0.427-0.152,0.601c-0.129,0.174-0.318,0.287-0.532,0.318C12.749,39.703,12.709,39.706,12.67,39.706z
				 M35.027,18.488c-0.021,0-0.044,0.003-0.065,0.007c-3.233,0.692-6.666,2.053-9.926,3.936c-8.064,4.655-13.394,11.6-12.673,16.511
				c0.024,0.166,0.181,0.281,0.353,0.262c0.082-0.013,0.154-0.056,0.204-0.122s0.07-0.148,0.058-0.23
				c-0.685-4.668,4.517-11.348,12.369-15.882c3.204-1.849,6.573-3.186,9.745-3.865c0.082-0.018,0.151-0.065,0.196-0.135
				c0.045-0.07,0.06-0.153,0.042-0.234C35.301,18.592,35.173,18.488,35.027,18.488z M43.688,33.043c-0.191,0-0.377-0.067-0.523-0.19
				c-0.166-0.141-0.266-0.337-0.284-0.553c-0.018-0.217,0.05-0.427,0.19-0.592c3.232-3.819,4.344-7.519,2.971-9.896
				c-0.986-1.709-3.233-2.671-6.329-2.711c-0.216-0.003-0.419-0.09-0.569-0.244c-0.152-0.155-0.234-0.359-0.231-0.576
				c0.007-0.442,0.371-0.801,0.812-0.801c3.7,0.047,6.439,1.297,7.723,3.521c1.756,3.041,0.612,7.325-3.138,11.755
				C44.152,32.938,43.927,33.043,43.688,33.043z M39.727,17.979c-0.173,0-0.312,0.138-0.315,0.308
				c-0.001,0.082,0.03,0.16,0.089,0.22c0.058,0.06,0.135,0.093,0.219,0.094c3.279,0.042,5.678,1.094,6.756,2.961
				c1.482,2.568,0.352,6.482-3.023,10.47c-0.055,0.063-0.08,0.145-0.072,0.228c0.006,0.083,0.045,0.158,0.108,0.211
				c0.198,0.169,0.347,0.072,0.438-0.037c3.553-4.196,4.707-8.376,3.088-11.182C45.82,19.186,43.232,18.023,39.727,17.979
				L39.727,17.979z"/>
		</g>
		<g>
			<path fill="#5E6066" d="M21.636,42.482c1.873,5.231,4.938,8.452,8.384,8.452c2.514,0,4.838-1.713,6.651-4.729
				c0.159-0.265,0.073-0.609-0.192-0.769c-0.266-0.162-0.609-0.074-0.77,0.191c-1.629,2.709-3.631,4.186-5.689,4.186
				c-2.863,0-5.596-2.873-7.327-7.709c-0.104-0.291-0.426-0.442-0.718-0.34C21.683,41.871,21.532,42.192,21.636,42.482
				L21.636,42.482L21.636,42.482z M38.746,41.46c0.969-3.099,1.49-6.674,1.49-10.397c0-9.297-3.254-17.308-7.888-19.365
				c-0.283-0.126-0.614,0.001-0.739,0.284c-0.127,0.283,0.001,0.615,0.285,0.74c4.132,1.836,7.219,9.44,7.219,18.341
				c0,3.612-0.504,7.074-1.439,10.062c-0.092,0.296,0.072,0.611,0.369,0.703C38.338,41.922,38.652,41.757,38.746,41.46L38.746,41.46
				L38.746,41.46z"/>
			<path fill="#5E6066" d="M30.02,51.185c-3.517,0-6.658-3.141-8.619-8.618c-0.15-0.418,0.069-0.884,0.489-1.037
				c0.427-0.146,0.892,0.083,1.038,0.49c1.691,4.724,4.342,7.544,7.092,7.544c1.954,0,3.898-1.443,5.475-4.064
				c0.223-0.371,0.744-0.502,1.115-0.276c0.184,0.111,0.315,0.288,0.367,0.499c0.053,0.21,0.02,0.428-0.092,0.612
				C35.005,49.462,32.566,51.185,30.02,51.185z M22.162,41.982c-0.035,0-0.07,0.006-0.104,0.018
				c-0.16,0.059-0.245,0.237-0.188,0.398c1.857,5.188,4.904,8.286,8.148,8.286c2.365,0,4.65-1.637,6.438-4.608
				c0.043-0.07,0.055-0.153,0.035-0.233c-0.021-0.081-0.07-0.149-0.143-0.192c-0.145-0.089-0.341-0.035-0.426,0.106
				c-1.671,2.777-3.768,4.307-5.904,4.307c-2.97,0-5.797-2.943-7.562-7.875C22.412,42.065,22.295,41.982,22.162,41.982z
				 M38.213,42.104c-0.084,0-0.166-0.013-0.246-0.038c-0.205-0.063-0.375-0.205-0.475-0.397c-0.102-0.191-0.121-0.411-0.057-0.618
				c0.935-2.985,1.428-6.438,1.428-9.987c0-8.675-2.974-16.292-7.07-18.112c-0.197-0.087-0.35-0.246-0.428-0.448
				c-0.078-0.203-0.073-0.424,0.016-0.622c0.177-0.396,0.67-0.589,1.069-0.411c4.731,2.101,8.036,10.158,8.036,19.594
				c0,3.711-0.52,7.332-1.502,10.472C38.878,41.875,38.568,42.104,38.213,42.104z M32.121,11.898c-0.123,0-0.234,0.072-0.283,0.185
				c-0.035,0.076-0.037,0.161-0.006,0.238c0.029,0.077,0.088,0.139,0.162,0.172c4.271,1.896,7.369,9.706,7.369,18.569
				c0,3.599-0.501,7.104-1.45,10.136c-0.024,0.08-0.017,0.164,0.021,0.238c0.038,0.073,0.103,0.127,0.183,0.151
				c0.176,0.057,0.34-0.042,0.39-0.202c0.968-3.093,1.479-6.662,1.479-10.323c0-9.244-3.183-17.113-7.739-19.137
				C32.207,11.907,32.164,11.898,32.121,11.898z"/>
		</g>
		<g>
			<path fill="#5E6066" d="M49.312,40.911c0-1.484-1.201-2.686-2.686-2.686c-1.482,0-2.685,1.201-2.685,2.686
				c0,1.482,1.202,2.685,2.685,2.685C48.111,43.596,49.312,42.394,49.312,40.911L49.312,40.911L49.312,40.911z M48.19,40.911
				c0,0.863-0.699,1.562-1.563,1.562c-0.863,0-1.562-0.699-1.562-1.562c0-0.864,0.699-1.564,1.562-1.564
				C47.491,39.347,48.19,40.047,48.19,40.911L48.19,40.911L48.19,40.911z"/>
			<path fill="#5E6066" d="M46.627,43.846c-1.618,0-2.935-1.316-2.935-2.935c0-1.619,1.316-2.936,2.935-2.936
				c1.619,0,2.936,1.316,2.936,2.936C49.562,42.529,48.246,43.846,46.627,43.846z M46.627,38.476c-1.342,0-2.435,1.093-2.435,2.436
				s1.093,2.435,2.435,2.435c1.343,0,2.436-1.092,2.436-2.435S47.97,38.476,46.627,38.476z M46.627,42.724
				c-1,0-1.812-0.813-1.812-1.812c0-1.001,0.812-1.814,1.812-1.814s1.813,0.813,1.813,1.814
				C48.44,41.91,47.627,42.724,46.627,42.724z M46.627,39.597c-0.725,0-1.312,0.59-1.312,1.314c0,0.724,0.588,1.312,1.312,1.312
				s1.313-0.589,1.313-1.312C47.94,40.187,47.352,39.597,46.627,39.597z"/>
		</g>
		<g>
			<path fill="#5E6066" d="M13.373,43.596c1.483,0,2.685-1.202,2.685-2.685c0-1.484-1.202-2.686-2.685-2.686
				s-2.686,1.201-2.686,2.686C10.688,42.394,11.89,43.596,13.373,43.596L13.373,43.596L13.373,43.596z M13.373,42.474
				c-0.863,0-1.563-0.699-1.563-1.562c0-0.864,0.7-1.564,1.563-1.564s1.563,0.7,1.563,1.564
				C14.936,41.774,14.236,42.474,13.373,42.474L13.373,42.474L13.373,42.474z"/>
			<path fill="#5E6066" d="M13.373,43.846c-1.619,0-2.936-1.316-2.936-2.935c0-1.619,1.317-2.936,2.936-2.936
				c1.618,0,2.935,1.316,2.935,2.936C16.308,42.529,14.991,43.846,13.373,43.846z M13.373,38.476c-1.343,0-2.436,1.093-2.436,2.436
				s1.093,2.435,2.436,2.435c1.342,0,2.435-1.092,2.435-2.435S14.715,38.476,13.373,38.476z M13.373,42.724
				c-1,0-1.813-0.813-1.813-1.812c0-1.001,0.813-1.814,1.813-1.814s1.813,0.813,1.813,1.814
				C15.186,41.91,14.373,42.724,13.373,42.724z M13.373,39.597c-0.724,0-1.313,0.59-1.313,1.314c0,0.724,0.589,1.312,1.313,1.312
				s1.313-0.589,1.313-1.312C14.686,40.187,14.097,39.597,13.373,39.597z"/>
		</g>
		<g>
			<path fill="#5E6066" d="M30.02,14.436c1.482,0,2.686-1.202,2.686-2.685c0-1.484-1.203-2.686-2.686-2.686
				s-2.686,1.201-2.686,2.686C27.334,13.233,28.537,14.436,30.02,14.436L30.02,14.436L30.02,14.436z M30.02,13.313
				c-0.863,0-1.562-0.699-1.562-1.562s0.699-1.564,1.562-1.564s1.562,0.701,1.562,1.564S30.883,13.313,30.02,13.313L30.02,13.313
				L30.02,13.313z"/>
			<path fill="#5E6066" d="M30.02,14.686c-1.619,0-2.936-1.316-2.936-2.935c0-1.619,1.316-2.936,2.936-2.936
				s2.936,1.316,2.936,2.936C32.955,13.369,31.639,14.686,30.02,14.686z M30.02,9.315c-1.343,0-2.436,1.093-2.436,2.436
				s1.093,2.435,2.436,2.435s2.436-1.092,2.436-2.435S31.362,9.315,30.02,9.315z M30.02,13.563c-1,0-1.812-0.813-1.812-1.812
				c0-1.001,0.812-1.814,1.812-1.814s1.812,0.813,1.812,1.814C31.832,12.75,31.02,13.563,30.02,13.563z M30.02,10.437
				c-0.725,0-1.312,0.59-1.312,1.314c0,0.724,0.588,1.312,1.312,1.312c0.724,0,1.312-0.589,1.312-1.312
				C31.332,11.026,30.743,10.437,30.02,10.437z"/>
		</g>
		<g>
			<path fill="#5E6066" d="M30.429,32.96c-1.048,0.227-2.081-0.439-2.309-1.488c-0.226-1.047,0.44-2.082,1.489-2.31
				c1.049-0.227,2.082,0.441,2.309,1.489C32.145,31.7,31.479,32.733,30.429,32.96L30.429,32.96z"/>
			<path fill="#5E6066" d="M30.017,33.254c-1.023,0-1.924-0.728-2.141-1.729c-0.255-1.181,0.499-2.351,1.68-2.606
				c1.163-0.255,2.356,0.525,2.606,1.681c0.124,0.572,0.018,1.159-0.301,1.651c-0.316,0.491-0.807,0.831-1.38,0.954
				C30.328,33.237,30.172,33.254,30.017,33.254z M30.021,29.368c-0.12,0-0.241,0.013-0.358,0.038
				c-0.912,0.198-1.494,1.101-1.298,2.013c0.192,0.892,1.114,1.489,2.012,1.297c0.442-0.096,0.821-0.357,1.065-0.737
				c0.246-0.38,0.328-0.832,0.232-1.274C31.506,29.93,30.811,29.368,30.021,29.368z"/>
		</g>
	</g>
</g>
</svg>
