<svg xmlns="http://www.w3.org/2000/svg" width="64" height="62" viewBox="0 0 64 62">
    <path fill="#FFF" fill-rule="evenodd" d="M43.002 8.115C55.032 10.915 64 21.757 64 34.707 64 49.78 51.849 62 36.86 62c-12.874 0-23.653-9.012-26.441-21.105-.459-1.988-.378-2.139.155-.083 2.971 11.455 13.328 19.909 25.649 19.909.184 0 .368-.002.55-.006-.042-1.874-.156-6.909.238-7.264.463-.417 9.62.825 11.357-1.284 1.737-2.11-.245-3.749 0-4.745.244-.996 1.774-1.564 1.774-2.432 0-.868-1.25-1.61-1.25-2 0-.389 2.207-.426 2.207-1.652 0-1.227-1.687-1.476-.746-2.75.94-1.275 3.151.173 3.865-1.864.715-2.038-3.865-10.523-3.865-13.889 0-1.696.605-1.563.605-2.617 0-.703-.437-2.264-1.312-4.683-8.386 4.182-12.672 6.082-12.86 5.698-.185-.38 4.594-3.45 14.337-9.213a26.303 26.303 0 0 0-8.413-3.803c-1.978-.5-1.682-.561.292-.102zM29.226 21.589L3.812 9.124C.444 7.472-.955 3.387.688 0l28.538 13.997v7.592zm0 2.144v7.592l-19.798-9.71c-3.369-1.653-4.767-5.738-3.125-9.125l22.923 11.243zm0 10.058v7.592l-14.162-6.946c-3.368-1.652-4.767-5.737-3.124-9.124l17.286 8.478z"/>
</svg>
