<?xml version="1.0" encoding="utf-8"?>
<!-- Generator: Adobe Illustrator 15.1.0, SVG Export Plug-In . SVG Version: 6.00 Build 0)  -->
<!DOCTYPE svg PUBLIC "-//W3C//DTD SVG 1.1//EN" "http://www.w3.org/Graphics/SVG/1.1/DTD/svg11.dtd">
<svg version="1.1" id="Layer_1" xmlns="http://www.w3.org/2000/svg" xmlns:xlink="http://www.w3.org/1999/xlink" x="0px" y="0px"
	 width="60px" height="60px" viewBox="0 0 60 60" enable-background="new 0 0 60 60" xml:space="preserve">
<g id="Page-1_4_">
	<g id="daedaluswallet.io_4_" transform="translate(-772.000000, -8112.000000)">
		<g id="row-4_1_" transform="translate(720.000000, 7500.000000)">
			<g id="features_3_" transform="translate(0.000000, 566.000000)">
				<g id="package-ic_1_">
					<path id="package_1_" fill="#5E6066" d="M101.031,64.451L82.4,53.609c-0.245-0.146-0.551-0.146-0.801,0L62.973,64.451
						c-0.25,0.146-0.399,0.414-0.399,0.7v21.695c0,0.288,0.149,0.556,0.399,0.699l18.626,10.848c0.127,0.07,0.262,0.106,0.4,0.106
						c0.138,0,0.281-0.036,0.4-0.106l18.631-10.848c0.244-0.146,0.395-0.411,0.395-0.699V65.151
						C101.426,64.859,101.275,64.598,101.031,64.451L101.031,64.451z M70.36,62.016l17.029,9.916l-5.387,3.134l-17.024-9.913
						L70.36,62.016L70.36,62.016z M75.003,59.309l17.03,9.917l-3.037,1.772l-17.03-9.916L75.003,59.309L75.003,59.309z
						 M89.797,72.396l3.037-1.77v5.93l-1.516-0.009c-0.229,0-0.457,0.1-0.607,0.276l-0.914,1.073V72.396L89.797,72.396z M82,55.244
						l17.03,9.907l-0.803,0.465l-4.59,2.676l-17.024-9.917L82,55.244L82,55.244z M64.175,66.551l17.021,9.915v19.829l-17.021-9.916
						V66.551L64.175,66.551z M99.828,86.379l-17.03,9.916V76.466l5.395-3.137v6.73c0,0.341,0.211,0.644,0.518,0.757
						c0.092,0.034,0.188,0.049,0.283,0.049c0.023,0,0.033-0.025,0.064-0.032c0.203-0.017,0.4-0.082,0.539-0.244l2.08-2.429
						l1.957,0.008c0.213,0,0.418-0.088,0.566-0.24c0.154-0.15,0.234-0.353,0.234-0.568v-7.666l5.393-3.143V86.379L99.828,86.379z"/>
				</g>
			</g>
		</g>
	</g>
</g>
</svg>
