<?xml version="1.0" encoding="utf-8"?>
<!-- Generator: Adobe Illustrator 15.1.0, SVG Export Plug-In . SVG Version: 6.00 Build 0)  -->
<!DOCTYPE svg PUBLIC "-//W3C//DTD SVG 1.1//EN" "http://www.w3.org/Graphics/SVG/1.1/DTD/svg11.dtd">
<svg version="1.1" id="Layer_1" xmlns="http://www.w3.org/2000/svg" xmlns:xlink="http://www.w3.org/1999/xlink" x="0px" y="0px"
	 width="60px" height="60px" viewBox="0 0 60 60" enable-background="new 0 0 60 60" xml:space="preserve">
<g>
	<g>
		<path fill="#5E6066" d="M41.979,24.183c-0.396-0.136-0.795-0.262-1.197-0.378c0.066-0.271,0.129-0.543,0.186-0.815
			c0.906-4.397,0.314-7.94-1.71-9.106c-1.938-1.118-5.11,0.047-8.313,2.836c-0.315,0.274-0.625,0.558-0.926,0.849
			c-0.202-0.193-0.407-0.383-0.616-0.569c-3.356-2.98-6.723-4.236-8.743-3.066c-1.938,1.121-2.511,4.451-1.695,8.619
			c0.081,0.413,0.174,0.823,0.274,1.231c-0.475,0.136-0.936,0.279-1.375,0.433c-3.936,1.372-6.45,3.522-6.45,5.754
			c0,2.303,2.699,4.614,6.799,6.016c0.332,0.113,0.667,0.218,1.005,0.314c-0.11,0.439-0.208,0.882-0.292,1.326
			c-0.777,4.096-0.171,7.347,1.762,8.462c1.995,1.151,5.346-0.032,8.607-2.883c0.258-0.226,0.517-0.465,0.776-0.715
			c0.326,0.313,0.661,0.62,1.005,0.916c3.159,2.719,6.279,3.817,8.21,2.7c1.995-1.155,2.643-4.648,1.801-8.898
			c-0.063-0.324-0.14-0.655-0.223-0.993c0.235-0.07,0.466-0.142,0.69-0.216c4.262-1.412,7.035-3.695,7.035-6.029
			C48.588,27.73,45.993,25.564,41.979,24.183z M31.986,17.916c2.744-2.388,5.31-3.331,6.479-2.657
			c1.244,0.718,1.729,3.612,0.946,7.409c-0.052,0.248-0.106,0.493-0.167,0.74c-1.542-0.357-3.218-0.621-4.971-0.785
			c-1.021-1.455-2.08-2.778-3.142-3.923C31.409,18.432,31.694,18.171,31.986,17.916z M22.389,31.873
			c0.337,0.65,0.688,1.292,1.055,1.924c0.374,0.646,0.763,1.282,1.167,1.91c-1.218-0.137-2.366-0.32-3.426-0.551
			C21.513,34.096,21.917,32.994,22.389,31.873z M22.388,28.139c-0.463-1.098-0.858-2.175-1.182-3.216
			c1.061-0.238,2.192-0.433,3.37-0.579c-0.395,0.614-0.774,1.239-1.14,1.873C23.072,26.849,22.722,27.489,22.388,28.139z
			 M23.231,30.006c0.489-1.018,1.018-2.018,1.581-2.997l0,0c0.564-0.979,1.166-1.936,1.803-2.868
			c1.106-0.084,2.239-0.127,3.386-0.127c1.15,0,2.285,0.043,3.392,0.127c0.629,0.933,1.228,1.887,1.791,2.86
			c0.566,0.977,1.101,1.972,1.603,2.982c-0.498,1.022-1.029,2.025-1.598,3.011l0,0c-0.563,0.978-1.159,1.938-1.784,2.877
			c-1.102,0.078-2.243,0.118-3.403,0.118c-1.157,0-2.282-0.035-3.367-0.106c-0.642-0.937-1.247-1.898-1.816-2.881
			C24.252,32.024,23.722,31.024,23.231,30.006z M36.564,33.786c0.373-0.648,0.732-1.305,1.077-1.97
			c0.496,1.133,0.916,2.229,1.249,3.27c-1.078,0.247-2.242,0.445-3.468,0.592C35.816,35.055,36.195,34.424,36.564,33.786z
			 M37.627,28.14c-0.344-0.652-0.7-1.297-1.069-1.935c-0.364-0.628-0.74-1.248-1.131-1.858c1.187,0.149,2.322,0.349,3.391,0.592
			C38.496,25.965,38.097,27.039,37.627,28.14z M30.018,19.836c0.733,0.793,1.466,1.68,2.188,2.641c-1.464-0.069-2.931-0.069-4.394,0
			C28.534,21.523,29.274,20.639,30.018,19.836z M21.454,15.306c1.244-0.72,3.994,0.307,6.893,2.88
			c0.186,0.165,0.371,0.338,0.559,0.516c-1.08,1.159-2.147,2.479-3.166,3.918c-1.75,0.162-3.423,0.424-4.963,0.771
			c-0.095-0.379-0.18-0.761-0.255-1.145l0,0C19.822,18.675,20.287,15.981,21.454,15.306z M19.643,34.769
			c-0.309-0.088-0.614-0.184-0.92-0.287c-1.812-0.62-3.309-1.425-4.335-2.304C13.467,31.389,13,30.604,13,29.969
			c0-1.354,2.02-3.08,5.385-4.255c0.422-0.146,0.849-0.28,1.279-0.401c0.465,1.512,1.076,3.095,1.812,4.694
			C20.73,31.631,20.111,33.237,19.643,34.769z M28.247,42.008c-1.441,1.262-2.887,2.154-4.161,2.604l0,0
			c-1.145,0.404-2.056,0.416-2.607,0.098c-1.172-0.676-1.66-3.286-0.994-6.788c0.079-0.414,0.169-0.825,0.271-1.234
			c1.522,0.337,3.209,0.579,5.011,0.727c1.027,1.445,2.105,2.776,3.19,3.941C28.726,41.578,28.489,41.796,28.247,42.008z
			 M30.062,40.213c-0.752-0.812-1.503-1.711-2.236-2.678c0.711,0.028,1.438,0.042,2.176,0.042c0.758,0,1.506-0.017,2.243-0.05
			C31.521,38.511,30.79,39.411,30.062,40.213z M39.706,42.423c-0.222,1.193-0.667,1.988-1.218,2.308
			c-1.171,0.678-3.677-0.204-6.378-2.528c-0.311-0.267-0.622-0.551-0.936-0.854c1.048-1.146,2.095-2.477,3.116-3.956
			c1.797-0.16,3.496-0.42,5.035-0.776c0.076,0.306,0.143,0.605,0.201,0.9C39.899,39.395,39.953,41.094,39.706,42.423z M41.054,34.49
			L41.054,34.49c-0.203,0.067-0.412,0.133-0.625,0.195c-0.47-1.489-1.104-3.072-1.881-4.71c0.74-1.597,1.352-3.161,1.809-4.64
			c0.38,0.109,0.749,0.226,1.105,0.348c3.439,1.185,5.539,2.936,5.539,4.285C47.001,31.404,44.734,33.271,41.054,34.49z"/>
		<circle fill="#5E6066" cx="30.001" cy="29.968" r="3.32"/>
	</g>
</g>
</svg>
