<?xml version="1.0" encoding="utf-8"?>
<!-- Generator: Adobe Illustrator 15.1.0, SVG Export Plug-In . SVG Version: 6.00 Build 0)  -->
<!DOCTYPE svg PUBLIC "-//W3C//DTD SVG 1.1//EN" "http://www.w3.org/Graphics/SVG/1.1/DTD/svg11.dtd">
<svg version="1.1" id="Layer_1" xmlns="http://www.w3.org/2000/svg" xmlns:xlink="http://www.w3.org/1999/xlink" x="0px" y="0px"
	 width="60px" height="60px" viewBox="0 0 60 60" enable-background="new 0 0 60 60" xml:space="preserve">
<g>
	<path fill="#5E6066" d="M30.037,50.063l-13.688-8.234c-2.306-1.479-4.092-4.746-4.092-7.455V15.249c0-2.93,2.383-5.312,5.312-5.312
		h24.863c2.929,0,5.312,2.383,5.312,5.312v19.125c0,2.709-1.787,5.977-4.066,7.438L30.037,50.063z M17.569,12.062
		c-1.758,0-3.188,1.43-3.188,3.188v19.125c0,1.988,1.414,4.576,3.088,5.648l12.563,7.559l12.521-7.572
		c1.65-1.059,3.065-3.646,3.065-5.635V15.249c0-1.758-1.43-3.188-3.188-3.188H17.569z"/>
	<polygon fill="#5E6066" points="22.668,24.613 19.155,21.1 20.657,19.597 22.668,21.608 26.911,17.366 28.414,18.868 	"/>
	<polygon fill="#5E6066" points="34.781,24.613 31.268,21.1 32.77,19.597 34.781,21.608 39.023,17.366 40.525,18.868 	"/>
	<polygon fill="#5E6066" points="22.668,36.514 19.155,33 20.657,31.497 22.668,33.509 26.911,29.267 28.414,30.769 	"/>
	<polygon fill="#5E6066" points="34.781,36.514 31.268,33 32.77,31.497 34.781,33.509 39.023,29.267 40.525,30.769 	"/>
</g>
</svg>
