<?xml version="1.0" encoding="utf-8"?>
<!-- Generator: Adobe Illustrator 15.1.0, SVG Export Plug-In . SVG Version: 6.00 Build 0)  -->
<!DOCTYPE svg PUBLIC "-//W3C//DTD SVG 1.1//EN" "http://www.w3.org/Graphics/SVG/1.1/DTD/svg11.dtd">
<svg version="1.1" id="Layer_1" xmlns="http://www.w3.org/2000/svg" xmlns:xlink="http://www.w3.org/1999/xlink" x="0px" y="0px"
	 width="60px" height="60px" viewBox="0 0 60 60" enable-background="new 0 0 60 60" xml:space="preserve">
<g>
	<path fill="#5E6066" d="M47.274,45.252H12.727c-2.215,0-4.017-1.803-4.017-4.016V21.937c0-2.214,1.802-4.016,4.016-4.016h34.548
		c2.215,0,4.017,1.802,4.017,4.016v19.299C51.29,43.449,49.488,45.252,47.274,45.252z M12.726,19.833
		c-1.16,0-2.104,0.943-2.104,2.104v19.299c0,1.16,0.944,2.104,2.104,2.104h34.548c1.16,0,2.104-0.943,2.104-2.104V21.937
		c0-1.16-0.944-2.104-2.104-2.104H12.726z"/>
	<g>
		<path fill="#FFFFFF" d="M46.734,37.381c0,1.684-1.377,3.061-3.061,3.061H33.156c-1.684,0-3.061,1.211-3.061,3.379V18.765
			c0-1.683,1.377-3.061,3.061-3.061h10.518c1.684,0,3.061,1.378,3.061,3.061V37.381z"/>
		<path fill="#5E6066" d="M30.096,44.775c-0.528,0-0.956-0.428-0.956-0.955V18.765c0-2.215,1.802-4.017,4.017-4.017h10.518
			c2.215,0,4.017,1.802,4.017,4.017v18.616c0,2.215-1.802,4.016-4.017,4.016H33.156c-1.298,0-2.104,0.93-2.104,2.424
			C31.052,44.348,30.624,44.775,30.096,44.775z M33.156,16.661c-1.16,0-2.104,0.944-2.104,2.104v21.284
			c0.598-0.363,1.311-0.564,2.104-0.564h10.518c1.16,0,2.104-0.943,2.104-2.104V18.765c0-1.16-0.944-2.104-2.104-2.104H33.156z"/>
	</g>
	<g>
		<path fill="#FFFFFF" d="M13.266,37.381c0,1.684,1.377,3.061,3.061,3.061h10.519c1.683,0,3.06,1.211,3.06,3.379V18.765
			c0-1.683-1.377-3.061-3.06-3.061H16.326c-1.684,0-3.061,1.378-3.061,3.061V37.381z"/>
		<path fill="#5E6066" d="M29.904,44.775c-0.528,0-0.956-0.428-0.956-0.955c0-1.494-0.806-2.424-2.104-2.424H16.326
			c-2.215,0-4.017-1.801-4.017-4.016V18.765c0-2.215,1.802-4.017,4.017-4.017h10.519c2.214,0,4.016,1.802,4.016,4.017V43.82
			C30.86,44.348,30.433,44.775,29.904,44.775z M16.326,16.661c-1.16,0-2.104,0.944-2.104,2.104v18.616
			c0,1.16,0.944,2.104,2.104,2.104h10.519c0.793,0,1.506,0.201,2.104,0.564V18.765c0-1.16-0.943-2.104-2.104-2.104H16.326z"/>
	</g>
	<path fill="#5E6066" d="M24.883,21.825h-6.885c-0.528,0-0.956-0.428-0.956-0.956s0.428-0.956,0.956-0.956h6.885
		c0.528,0,0.956,0.428,0.956,0.956S25.411,21.825,24.883,21.825z"/>
	<path fill="#5E6066" d="M24.883,26.606h-6.885c-0.528,0-0.956-0.428-0.956-0.956s0.428-0.956,0.956-0.956h6.885
		c0.528,0,0.956,0.428,0.956,0.956S25.411,26.606,24.883,26.606z"/>
	<path fill="#5E6066" d="M24.883,31.387h-6.885c-0.528,0-0.956-0.428-0.956-0.956c0-0.528,0.428-0.956,0.956-0.956h6.885
		c0.528,0,0.956,0.428,0.956,0.956C25.839,30.959,25.411,31.387,24.883,31.387z"/>
	<path fill="#5E6066" d="M24.883,36.168h-6.885c-0.528,0-0.956-0.428-0.956-0.955c0-0.529,0.428-0.957,0.956-0.957h6.885
		c0.528,0,0.956,0.428,0.956,0.957C25.839,35.74,25.411,36.168,24.883,36.168z"/>
	<path fill="#5E6066" d="M41.713,21.825h-6.885c-0.528,0-0.956-0.428-0.956-0.956s0.428-0.956,0.956-0.956h6.885
		c0.528,0,0.956,0.428,0.956,0.956S42.241,21.825,41.713,21.825z"/>
	<path fill="#5E6066" d="M41.713,26.606h-6.885c-0.528,0-0.956-0.428-0.956-0.956s0.428-0.956,0.956-0.956h6.885
		c0.528,0,0.956,0.428,0.956,0.956S42.241,26.606,41.713,26.606z"/>
	<path fill="#5E6066" d="M41.713,31.387h-6.885c-0.528,0-0.956-0.428-0.956-0.956c0-0.528,0.428-0.956,0.956-0.956h6.885
		c0.528,0,0.956,0.428,0.956,0.956C42.669,30.959,42.241,31.387,41.713,31.387z"/>
	<path fill="#5E6066" d="M41.713,36.168h-6.885c-0.528,0-0.956-0.428-0.956-0.955c0-0.529,0.428-0.957,0.956-0.957h6.885
		c0.528,0,0.956,0.428,0.956,0.957C42.669,35.74,42.241,36.168,41.713,36.168z"/>
</g>
</svg>
