<?xml version="1.0" encoding="utf-8"?>
<!-- Generator: Adobe Illustrator 15.1.0, SVG Export Plug-In . SVG Version: 6.00 Build 0)  -->
<!DOCTYPE svg PUBLIC "-//W3C//DTD SVG 1.1//EN" "http://www.w3.org/Graphics/SVG/1.1/DTD/svg11.dtd">
<svg version="1.1" id="Layer_1" xmlns="http://www.w3.org/2000/svg" xmlns:xlink="http://www.w3.org/1999/xlink" x="0px" y="0px"
	 width="60px" height="60px" viewBox="0 0 60 60" enable-background="new 0 0 60 60" xml:space="preserve">
<g id="Page-1">
	<g id="daedaluswallet.io" transform="translate(-763.000000, -5972.000000)">
		<g id="row-3" transform="translate(720.000000, 5340.000000)">
			<g id="features" transform="translate(0.000000, 584.000000)">
				<g id="wallet-ic">
					<path fill="#5E6066" d="M90.269,67.545v-1.818c0-2.008-1.627-3.636-3.637-3.636h-3.278l-0.776-2.131
						c-0.169-0.466-0.686-0.705-1.152-0.535l-7.359,2.667h-18.33h-0.002c-2.008,0-3.636,1.627-3.636,3.636v26.358
						c0,2.51,2.034,4.545,4.544,4.545h32.717c2.51,0,4.544-2.035,4.544-4.545V71.18C93.903,69.172,92.275,67.545,90.269,67.545
						L90.269,67.545z M86.632,63.909c1.005,0,1.818,0.813,1.818,1.817v1.818h-3.114l-1.323-3.636H86.632L86.632,63.909z
						 M74.312,63.909h0.01l5.011-1.818h-0.002l1.864-0.675l0.965,2.657l1.263,3.472H64.282L74.312,63.909L74.312,63.909z
						 M55.734,63.909h13.313l-9.979,3.616c-0.012,0.004-0.019,0.014-0.031,0.02h-3.304c-1.003,0-1.817-0.815-1.817-1.818
						C53.917,64.723,54.731,63.909,55.734,63.909L55.734,63.909z M92.086,83.904H88.45c-1.002,0-1.818-0.813-1.818-1.816
						c0-1.004,0.816-1.818,1.818-1.818h3.636V83.904L92.086,83.904z M92.086,78.451H88.45c-2.007,0-3.635,1.628-3.635,3.637
						c0,2.007,1.628,3.635,3.635,3.635h3.636v6.362c0,1.507-1.22,2.728-2.726,2.728H56.644c-1.506,0-2.727-1.221-2.727-2.728V68.857
						c0.535,0.312,1.152,0.505,1.817,0.505h34.534c1.004,0,1.817,0.813,1.817,1.817V78.451L92.086,78.451z M88.45,82.996h1.818
						v-1.818H88.45V82.996L88.45,82.996z"/>
					<g id="ada-symbol-big-white" transform="translate(79.454545, 85.727273)">
						<path fill="#5E6066" d="M-1.959-2.764h-10.798c-0.501,0-0.907-0.407-0.907-0.908c0-0.502,0.406-0.908,0.907-0.908h10.798
							c0.5,0,0.907,0.406,0.907,0.908C-1.052-3.172-1.459-2.764-1.959-2.764z"/>
					</g>
					<g id="ada-symbol-big-white_2_" transform="translate(79.454545, 85.727273)">
						<path fill="#5E6066" d="M-8.266,1.726V-9.072c0-0.501,0.406-0.907,0.908-0.907c0.501,0,0.908,0.406,0.908,0.907V1.726
							c0,0.5-0.407,0.907-0.908,0.907C-7.86,2.633-8.266,2.226-8.266,1.726z"/>
					</g>
				</g>
			</g>
		</g>
	</g>
</g>
</svg>
