<svg xmlns="http://www.w3.org/2000/svg" width="48" height="35" viewBox="0 0 48 35">
    <path fill="#EB2256" fill-rule="evenodd" d="M0 4.5A4.5 4.5 0 0 1 4.5 0h12.053A7.447 7.447 0 0 1 24 7.447 7.447 7.447 0 0 1 31.447 0H43.5A4.5 4.5 0 0 1 48 4.5v19.298a4.5 4.5 0 0 1-4.5 4.5H31.86a7.5 7.5 0 0 0-6.846 4.436L24 35l-1.014-2.266a7.5 7.5 0 0 0-6.846-4.436H4.5a4.5 4.5 0 0 1-4.5-4.5V4.5zm4.5 2.947v2.979h15v-2.98h-15zm0 5.213v2.978h15V12.66h-15zm0 5.212v2.98h15v-2.98h-15zm24-10.425v2.979h15v-2.98h-15zm0 5.213v2.978h15V12.66h-15zm0 5.212v2.98h15v-2.98h-15z"/>
</svg>
