<?xml version="1.0" encoding="UTF-8"?>
<svg width="663px" height="952px" viewBox="0 0 663 952" version="1.1" xmlns="http://www.w3.org/2000/svg" xmlns:xlink="http://www.w3.org/1999/xlink">
    <!-- Generator: Sketch 52.6 (67491) - http://www.bohemiancoding.com/sketch -->
    <title>ui</title>
    <desc>Created with Sketch.</desc>
    <defs>
        <path d="M125,9 L134,0 L143,9 L265.996887,9 C267.103176,9 268,9.89168549 268,10.9956621 L268,207.004338 C268,208.106512 267.107869,209 265.996887,209 L2.00311327,209 C0.896824359,209 0,208.108315 0,207.004338 L0,10.9956621 C0,9.89348837 0.892130622,9 2.00311327,9 L125,9 Z" id="path-1"></path>
        <path d="M125,9 L134,0 L143,9 L265.996887,9 C267.103176,9 268,9.89168549 268,10.9956621 L268,207.004338 C268,208.106512 267.107869,209 265.996887,209 L2.00311327,209 C0.896824359,209 0,208.108315 0,207.004338 L0,10.9956621 C0,9.89348837 0.892130622,9 2.00311327,9 L125,9 Z" id="path-3"></path>
    </defs>
    <g id="Page-1" stroke="none" stroke-width="1" fill="none" fill-rule="evenodd" opacity="0.699999988">
        <g id="cardano-wallet-website-home" transform="translate(-550.000000, -2733.000000)">
            <g id="Group-5" transform="translate(540.000000, 2703.000000)">
                <g id="ui" transform="translate(0.000000, 20.000000)">
                    <g id="Iconography">
                        <g id="wallet-ic">
                            <circle id="Oval" cx="22" cy="22" r="22"></circle>
                            <path d="M31.5004998,15.9976977 L31.5004998,14.9975538 C31.5004998,13.8928949 30.6049998,12.997266 29.5004998,12.997266 L27.6959998,12.997266 L27.2689998,11.8245973 C27.1759998,11.5685604 26.8919999,11.4365414 26.6349999,11.5300549 L22.5859999,12.997266 L12.501,12.997266 L12.5,12.997266 C11.3955,12.997266 10.5,13.8928949 10.5,14.9975538 L10.5,29.4996403 C10.5,30.8803389 11.619,32 13,32 L30.9999998,32 C32.3809998,32 33.4999998,30.8803389 33.4999998,29.4996403 L33.4999998,17.9979855 C33.5004998,16.8933265 32.6049998,15.9976977 31.5004998,15.9976977 L31.5004998,15.9976977 Z M29.5004998,13.9974099 C30.0529998,13.9974099 30.5004998,14.4454744 30.5004998,14.9975538 L30.5004998,15.9976977 L28.7864998,15.9976977 L28.0589998,13.9974099 L29.5004998,13.9974099 L29.5004998,13.9974099 Z M22.7219999,13.9974099 L22.7269999,13.9974099 L25.4839999,12.997266 L25.4829999,12.997266 L26.5084999,12.6257125 L27.0394998,14.0879229 L27.7339998,15.9976977 L17.2029999,15.9976977 L22.7219999,13.9974099 L22.7219999,13.9974099 Z M12.5005,13.9974099 L19.8254999,13.9974099 L14.3355,15.9871962 C14.3285,15.9896965 14.325,15.9951973 14.318,15.9976977 L12.5005,15.9976977 C11.9485,15.9976977 11.5005,15.5496332 11.5005,14.9975538 C11.5005,14.4454744 11.9485,13.9974099 12.5005,13.9974099 L12.5005,13.9974099 Z M32.5004998,24.9989927 L30.5004998,24.9989927 C29.9484998,24.9989927 29.5004998,24.5509283 29.5004998,23.9988488 C29.5004998,23.4467694 29.9484998,22.9987049 30.5004998,22.9987049 L32.5004998,22.9987049 L32.5004998,24.9989927 L32.5004998,24.9989927 Z M32.5004998,21.9985611 L30.5004998,21.9985611 C29.3959998,21.9985611 28.5004998,22.8941899 28.5004998,23.9988488 C28.5004998,25.1035078 29.3959998,25.9991366 30.5004998,25.9991366 L32.5004998,25.9991366 L32.5004998,29.4996403 C32.5004998,30.3282595 31.8294998,30.9998561 31.0004998,30.9998561 L13.0005,30.9998561 C12.1725,30.9998561 11.5005,30.3282595 11.5005,29.4996403 L11.5005,16.7203016 C11.7955,16.8918263 12.1345,16.9978416 12.5005,16.9978416 L31.5004998,16.9978416 C32.0529998,16.9978416 32.5004998,17.445906 32.5004998,17.9979855 L32.5004998,21.9985611 L32.5004998,21.9985611 Z M30.5004998,24.4989208 L31.5004998,24.4989208 L31.5004998,23.4987769 L30.5004998,23.4987769 L30.5004998,24.4989208 L30.5004998,24.4989208 Z" fill="#FFFFFF"></path>
                        </g>
                        <g id="ada-wallet-ic" transform="translate(64.000000, 0.000000)">
                            <circle id="Oval" cx="22" cy="22" r="22"></circle>
                            <path d="M31.5004998,15.9976977 L31.5004998,14.9975538 C31.5004998,13.8928949 30.6049998,12.997266 29.5004998,12.997266 L27.6959998,12.997266 L27.2689998,11.8245973 C27.1759998,11.5685604 26.8919999,11.4365414 26.6349999,11.5300549 L22.5859999,12.997266 L12.501,12.997266 L12.5,12.997266 C11.3955,12.997266 10.5,13.8928949 10.5,14.9975538 L10.5,29.4996403 C10.5,30.8803389 11.619,32 13,32 L30.9999998,32 C32.3809998,32 33.4999998,30.8803389 33.4999998,29.4996403 L33.4999998,17.9979855 C33.5004998,16.8933265 32.6049998,15.9976977 31.5004998,15.9976977 L31.5004998,15.9976977 Z M29.5004998,13.9974099 C30.0529998,13.9974099 30.5004998,14.4454744 30.5004998,14.9975538 L30.5004998,15.9976977 L28.7864998,15.9976977 L28.0589998,13.9974099 L29.5004998,13.9974099 L29.5004998,13.9974099 Z M22.7219999,13.9974099 L22.7269999,13.9974099 L25.4839999,12.997266 L25.4829999,12.997266 L26.5084999,12.6257125 L27.0394998,14.0879229 L27.7339998,15.9976977 L17.2029999,15.9976977 L22.7219999,13.9974099 L22.7219999,13.9974099 Z M12.5005,13.9974099 L19.8254999,13.9974099 L14.3355,15.9871962 C14.3285,15.9896965 14.325,15.9951973 14.318,15.9976977 L12.5005,15.9976977 C11.9485,15.9976977 11.5005,15.5496332 11.5005,14.9975538 C11.5005,14.4454744 11.9485,13.9974099 12.5005,13.9974099 L12.5005,13.9974099 Z M32.5004998,24.9989927 L30.5004998,24.9989927 C29.9484998,24.9989927 29.5004998,24.5509283 29.5004998,23.9988488 C29.5004998,23.4467694 29.9484998,22.9987049 30.5004998,22.9987049 L32.5004998,22.9987049 L32.5004998,24.9989927 L32.5004998,24.9989927 Z M32.5004998,21.9985611 L30.5004998,21.9985611 C29.3959998,21.9985611 28.5004998,22.8941899 28.5004998,23.9988488 C28.5004998,25.1035078 29.3959998,25.9991366 30.5004998,25.9991366 L32.5004998,25.9991366 L32.5004998,29.4996403 C32.5004998,30.3282595 31.8294998,30.9998561 31.0004998,30.9998561 L13.0005,30.9998561 C12.1725,30.9998561 11.5005,30.3282595 11.5005,29.4996403 L11.5005,16.7203016 C11.7955,16.8918263 12.1345,16.9978416 12.5005,16.9978416 L31.5004998,16.9978416 C32.0529998,16.9978416 32.5004998,17.445906 32.5004998,17.9979855 L32.5004998,21.9985611 L32.5004998,21.9985611 Z M30.5004998,24.4989208 L31.5004998,24.4989208 L31.5004998,23.4987769 L30.5004998,23.4987769 L30.5004998,24.4989208 L30.5004998,24.4989208 Z" id="wallet-ic" fill="#FFFFFF"></path>
                            <g id="ada-symbol-big-white" transform="translate(19.000000, 20.500000)" stroke="#FFFFFF" stroke-linecap="round">
                                <polyline id="Path-2" stroke-linejoin="round" points="0.189574468 7 2.97 0 5.75042553 7"></polyline>
                                <path d="M0.631914894,3 L5.30808511,3" id="Line"></path>
                                <path d="M0,4.64996338 L5.94,4.64996338" id="Line-Copy"></path>
                            </g>
                        </g>
                        <g id="card-ic" transform="translate(128.000000, 0.000000)">
                            <circle id="Oval" cx="22" cy="22" r="22"></circle>
                            <path d="M14.0005,24.5 L18.5005,24.5 C18.777,24.5 19.0005,24.276 19.0005,24 C19.0005,23.724 18.777,23.5 18.5005,23.5 L14.0005,23.5 C13.724,23.5 13.5005,23.724 13.5005,24 C13.5005,24.276 13.724,24.5 14.0005,24.5 L14.0005,24.5 Z M14.0005,27 L17.0005,27 C17.277,27 17.5005,26.776 17.5005,26.5 C17.5005,26.224 17.277,26 17.0005,26 L14.0005,26 C13.724,26 13.5005,26.224 13.5005,26.5 C13.5005,26.776 13.724,27 14.0005,27 L14.0005,27 Z M21.0005,24.5 L23.0005,24.5 C23.277,24.5 23.5005,24.276 23.5005,24 C23.5005,23.724 23.277,23.5 23.0005,23.5 L21.0005,23.5 C20.724,23.5 20.5005,23.724 20.5005,24 C20.5005,24.276 20.724,24.5 21.0005,24.5 L21.0005,24.5 Z M31.5005,14 L12.5005,14 C11.396,14 10.5005,14.8955 10.5005,16 L10.5005,28 C10.5005,29.1045 11.396,30 12.5005,30 L31.5005,30 C32.605,30 33.5005,29.1045 33.5005,28 L33.5005,16 C33.5005,14.8955 32.605,14 31.5005,14 L31.5005,14 Z M11.5005,21.5 L11.5005,20.5 L32.5005,20.5 L32.5005,21.5 L32.5005,28 C32.5005,28.5525 32.053,29 31.5005,29 L12.5005,29 C11.9485,29 11.5005,28.552 11.5005,28 L11.5005,21.5 Z M32.5005,17.5 L11.5005,17.5 L11.5005,16 C11.5005,15.448 11.9485,15 12.5005,15 L31.5005,15 C32.053,15 32.5005,15.448 32.5005,16 L32.5005,17.5 L32.5005,17.5 Z" fill="#FFFFFF"></path>
                        </g>
                        <g id="staking-ic" transform="translate(192.000000, 0.000000)">
                            <circle id="Oval" cx="22" cy="22" r="22"></circle>
                            <path d="M30.5717234,19.3353405 L30.2373581,19.3353405 C29.754386,18.0622947 28.9329205,16.9098971 27.8307534,15.9779943 L27.8307534,15.9696737 C27.6656347,15.3913948 27.7894737,14.771513 28.1898865,14.1266696 C28.3962848,13.7938472 28.4086687,13.3903 28.2187822,13.049157 C28.0330237,12.7121743 27.6821465,12.5 27.3023736,12.5 C27.2569659,12.5 27.2115583,12.5041603 27.1702786,12.5083206 C25.6388029,12.6996935 24.7223942,13.4027808 24.1940144,14.0559448 C23.2776058,13.8021677 22.3281734,13.673199 21.3622291,13.673199 C18.873065,13.673199 16.5325077,14.5302168 14.7657379,16.0861616 C12.9824561,17.6587475 12,19.7555288 12,21.9895993 C12,22.5678783 12.0660475,23.1461572 12.2022704,23.7119553 C12.2022704,23.7202759 12.2063983,23.7327567 12.2105263,23.7410773 C12.2105263,23.7410773 12.2146543,23.7493979 12.2187822,23.766039 C12.3591331,24.3359974 12.5655315,24.8934749 12.8338493,25.4218305 C13.2755418,26.3911758 13.8080495,27.1982702 14.4066047,27.8223122 C15.2569659,28.7042917 15.4014448,29.8192468 15.4220846,30.268557 L15.4220846,30.4890519 L15.4220846,30.5306547 C15.4220846,30.5514561 15.4220846,30.5722575 15.4262126,30.5888986 C15.4757482,31.1006131 15.9091847,31.4958397 16.4210526,31.4958397 L19.496388,31.4958397 C20.0454076,31.4958397 20.495356,31.0423692 20.495356,30.4890519 L20.495356,30.2810379 C20.9742002,30.3184804 21.4571723,30.326801 21.9401445,30.3018393 L21.9401445,30.4932122 C21.9401445,31.0465295 22.3900929,31.5 22.9391125,31.5 L26.0144479,31.5 C26.5634675,31.5 27.0134159,31.0465295 27.0134159,30.4932122 L27.0134159,29.7360412 C27.0175439,29.5571491 27.0877193,28.7084519 27.8844169,27.9762426 C27.9215686,27.9429604 27.9628483,27.9096781 28,27.8763959 C28.004128,27.8722356 28.004128,27.8722356 28.0082559,27.8680753 C28.0165119,27.8597548 28.0288958,27.8514342 28.0371517,27.8431136 C29.0691434,26.9112109 29.8410733,25.7754543 30.2868937,24.5356908 L30.5758514,24.5356908 C31.3601651,24.5356908 32,23.8908474 32,23.1003941 L32,20.7872783 C31.995872,19.9801839 31.3560372,19.3353405 30.5717234,19.3353405 L30.5717234,19.3353405 Z M31.00516,23.083753 C31.00516,23.3250493 30.8111455,23.5205824 30.5717234,23.5205824 L29.9277606,23.5205824 C29.7089783,23.5205824 29.5190918,23.662032 29.4530444,23.8742063 C29.0856553,25.0806875 28.3591331,26.1956427 27.3560372,27.0984235 C27.3519092,27.1025838 27.3519092,27.1025838 27.3477812,27.106744 L27.3436533,27.1109043 C27.3065015,27.1441866 27.2693498,27.1774688 27.2321981,27.210751 C27.2280702,27.2149113 27.2239422,27.2190716 27.2198142,27.2190716 C26.1382869,28.2092183 26.0268318,29.3740968 26.0185759,29.7069192 L26.0185759,29.7194 L26.0185759,30.4848916 C26.0185759,30.4890519 26.0144479,30.4932122 26.0103199,30.4932122 L22.9349845,30.4932122 C22.9308566,30.4932122 22.9267286,30.4890519 22.9267286,30.4848916 L22.9267286,29.7568426 C22.9267286,29.615393 22.868937,29.4822641 22.7616099,29.3865776 C22.6707946,29.303372 22.5510836,29.2576089 22.4313725,29.2576089 C22.4148607,29.2576089 22.3983488,29.2576089 22.377709,29.2617692 C22.0392157,29.2992117 21.6965944,29.3158529 21.3581011,29.3158529 C20.9246646,29.3158529 20.4871001,29.2867309 20.0619195,29.228487 C19.9215686,29.2076856 19.7770898,29.2534487 19.6697626,29.3491351 C19.5624355,29.4448215 19.500516,29.5821108 19.500516,29.7235603 L19.500516,30.4848916 C19.500516,30.4890519 19.496388,30.4932122 19.4922601,30.4932122 L16.4169247,30.4932122 C16.4127967,30.4932122 16.4086687,30.4890519 16.4086687,30.4848916 L16.4086687,30.4848916 L16.4086687,30.2519159 L16.4086687,30.2311145 C16.3839009,29.673637 16.2105263,28.2591417 15.1124871,27.1233852 C14.5882353,26.5783884 14.1176471,25.8628202 13.7172343,24.9933217 C13.7131063,24.9850011 13.7131063,24.9808408 13.7089783,24.9766805 C13.4736842,24.5107291 13.2879257,24.0239764 13.1682147,23.5247427 C13.1682147,23.5205824 13.1640867,23.5164222 13.1640867,23.5122619 L13.1640867,23.5039413 C13.0443756,23.008868 12.9865841,22.5013138 12.9865841,21.9979199 C12.9865841,17.962448 16.7430341,14.6758266 21.3581011,14.6758266 C22.3446852,14.6758266 23.3065015,14.8255967 24.2229102,15.1168163 C24.4334365,15.1833808 24.6604747,15.1043354 24.7843137,14.9212831 C25.1517028,14.3721261 25.8823529,13.6856799 27.2858617,13.5067878 C27.3188854,13.5026275 27.3395253,13.5234289 27.3477812,13.5400701 C27.3642931,13.569192 27.3519092,13.5941537 27.3436533,13.6024743 C26.7946336,14.4844537 26.6336429,15.3997153 26.873065,16.2484125 C26.873065,16.2525728 26.877193,16.2608934 26.877193,16.2650536 C26.8813209,16.4106635 26.9473684,16.5479527 27.0629515,16.6394789 C28.1857585,17.5547405 28.998968,18.7154587 29.4158927,19.996825 C29.4819401,20.2006788 29.6718266,20.3421283 29.8864809,20.3421283 L29.8906089,20.3421283 L30.5675955,20.3421283 C30.8070175,20.3421283 31.001032,20.5376615 31.001032,20.7789577 L31.001032,23.083753 L31.00516,23.083753 L31.00516,23.083753 Z" id="piggy-bank" fill="#FFFFFF"></path>
                            <g id="ada-symbol-big-white" transform="translate(18.400002, 18.400024)" stroke="#FFFFFF" stroke-linecap="round">
                                <polyline id="Path-2" stroke-linejoin="round" points="0.189574468 7 2.97 0 5.75042553 7"></polyline>
                                <path d="M0.631914894,3 L5.30808511,3" id="Line"></path>
                                <path d="M0,4.64996338 L5.94,4.64996338" id="Line-Copy"></path>
                            </g>
                        </g>
                        <g id="explore-ic" transform="translate(256.000000, 0.000000)">
                            <circle id="Oval" cx="22" cy="22" r="22"></circle>
                            <path d="M14.5,21.5 L14,21.5 C13.7235,21.5 13.5,21.7235 13.5,22 C13.5,22.2765 13.7235,22.5 14,22.5 L14.5,22.5 C14.7765,22.5 15,22.2765 15,22 C15,21.7235 14.7765,21.5 14.5,21.5 L14.5,21.5 Z M29.5,22.5 L30,22.5 C30.2765,22.5 30.5,22.2765 30.5,22 C30.5,21.7235 30.2765,21.5 30,21.5 L29.5,21.5 C29.2235,21.5 29,21.7235 29,22 C29,22.2765 29.2235,22.5 29.5,22.5 L29.5,22.5 Z M22,29 C21.7235,29 21.5,29.2235 21.5,29.5 L21.5,30 C21.5,30.2765 21.7235,30.5 22,30.5 C22.2765,30.5 22.5,30.2765 22.5,30 L22.5,29.5 C22.5,29.2235 22.2765,29 22,29 L22,29 Z M22,15 C22.2765,15 22.5,14.7765 22.5,14.5 L22.5,14 C22.5,13.7235 22.2765,13.5 22,13.5 C21.7235,13.5 21.5,13.7235 21.5,14 L21.5,14.5 C21.5,14.776 21.7235,15 22,15 L22,15 Z M22,21.5 C21.7235,21.5 21.5,21.7235 21.5,22 C21.5,22.2765 21.7235,22.5 22,22.5 C22.2765,22.5 22.5,22.2765 22.5,22 C22.5,21.7235 22.2765,21.5 22,21.5 L22,21.5 Z M26.9445,26.2935 L26.956,26.304 L26.9785,26.3265 C24.9795,21.47 23.758,20.2855 23.7355,20.264 C23.714,20.2415 22.5295,19.02 17.673,17.021 L17.6945,17.0425 L17.706,17.055 C17.702,17.052 17.696,17.052 17.6925,17.05 C17.511,16.965 17.291,16.9905 17.1415,17.141 C17.083,17.1995 17.0485,17.27 17.027,17.344 C16.995,17.4525 17.0005,17.5685 17.0455,17.675 C17.0495,17.685 17.0505,17.6955 17.0555,17.7055 L17.0225,17.6725 C19.0205,22.529 20.242,23.7135 20.2645,23.735 C20.2745,23.745 20.5045,23.982 21.162,24.411 C21.989,24.952 23.501,25.7985 26.0955,26.88 C26.1745,26.913 26.246,26.9445 26.327,26.9775 L26.323,26.9735 L26.2945,26.944 C26.478,27.036 26.7045,27.0115 26.858,26.858 C26.931,26.785 26.973,26.695 26.989,26.601 C27.0025,26.523 26.993,26.443 26.9685,26.3655 C26.961,26.3415 26.956,26.317 26.9445,26.2935 L26.9445,26.2935 Z M20.9775,23.033 C20.957,23.0125 20.003,22.0145 18.4295,18.4295 C22.0155,20.002 23.0125,20.955 23.0235,20.9655 C23.043,20.986 23.998,21.984 25.5705,25.57 C21.9855,23.997 20.9885,23.0435 20.9775,23.033 L20.9775,23.033 Z M22,11.5 C16.201,11.5 11.5,16.201 11.5,22 C11.5,27.799 16.201,32.5 22,32.5 C27.799,32.5 32.5,27.799 32.5,22 C32.5,16.201 27.799,11.5 22,11.5 L22,11.5 Z M22,31.5 C16.754,31.5 12.5,27.246 12.5,22 C12.5,16.753 16.754,12.5 22,12.5 C27.247,12.5 31.5,16.753 31.5,22 C31.5,27.246 27.247,31.5 22,31.5 L22,31.5 Z" id="explore" fill="#FFFFFF"></path>
                        </g>
                        <g id="ada-redemption-ic" transform="translate(320.000000, 0.000000)">
                            <circle id="Oval" cx="22" cy="22" r="22"></circle>
                            <g id="ada-symbol-big-white" transform="translate(14.000000, 13.000000)" stroke="#FFFFFF" stroke-linecap="round">
                                <polyline id="Path-2" stroke-linejoin="round" points="0.505531915 18 7.92 0 15.3344681 18"></polyline>
                                <path d="M1.68510638,7 L14.1548936,7" id="Line"></path>
                                <path d="M0,11 L15.84,11" id="Line-Copy"></path>
                            </g>
                        </g>
                        <g id="package-ic" transform="translate(384.000000, 0.000000)">
                            <circle id="Oval" cx="22" cy="22" r="22"></circle>
                            <path d="M31.5246296,16.4173226 L22.3075185,11.0542903 C22.1864815,10.9819032 22.0351852,10.9819032 21.912037,11.0542903 L12.6977407,16.4173226 C12.5738889,16.4897097 12.5,16.6224194 12.5,16.7636452 L12.5,27.4960968 C12.5,27.6387419 12.5738889,27.7707419 12.6977407,27.8424194 L21.912037,33.2082903 C21.973963,33.2430645 22.0415185,33.2608065 22.1097778,33.2608065 C22.1773333,33.2608065 22.2484074,33.2430645 22.3075185,33.2082903 L31.5246296,27.8424194 C31.6456667,27.7700323 31.7195556,27.6387419 31.7195556,27.4960968 L31.7195556,16.7636452 C31.7195556,16.6195806 31.6456667,16.4897097 31.5246296,16.4173226 L31.5246296,16.4173226 Z M16.3513704,15.213 L24.7754074,20.1182903 L22.1104815,21.6682258 L13.6892593,16.7643548 L16.3513704,15.213 L16.3513704,15.213 Z M18.648963,13.8738387 L27.073,18.779129 L25.5705926,19.6562903 L17.1465556,14.751 L18.648963,13.8738387 L18.648963,13.8738387 Z M25.9667778,20.3482258 L27.4691852,19.4724839 L27.4691852,22.4055806 L26.719037,22.4013226 C26.6064444,22.4013226 26.4938519,22.451 26.4192593,22.5382903 L25.9667778,23.069129 L25.9667778,20.3482258 L25.9667778,20.3482258 Z M22.1097778,11.8626129 L30.5338148,16.7636452 L30.1369259,16.9935806 L27.8660741,18.317129 L19.4448519,13.4118387 L22.1097778,11.8626129 L22.1097778,11.8626129 Z M13.2930741,17.4555806 L21.7128889,22.360871 L21.7128889,32.1700323 L13.2930741,27.2647419 L13.2930741,17.4555806 L13.2930741,17.4555806 Z M30.9292963,27.2647419 L22.5052593,32.1700323 L22.5052593,22.360871 L25.173,20.8095161 L25.173,24.1386129 C25.173,24.3075161 25.2771481,24.4572581 25.4298519,24.5126129 C25.4748889,24.5303548 25.522037,24.5374516 25.5698889,24.5374516 C25.5811481,24.5374516 25.5860741,24.5246774 25.6015556,24.521129 C25.7021852,24.5126129 25.7992963,24.4806774 25.8682593,24.4004839 L26.8977778,23.199 L27.8653704,23.2032581 C27.9709259,23.2032581 28.0715556,23.1592581 28.1454444,23.0840323 C28.2221481,23.0095161 28.2608519,22.9094516 28.2608519,22.803 L28.2608519,19.0104839 L30.9285926,17.4555806 L30.9285926,27.2647419 L30.9292963,27.2647419 Z" id="package" fill="#FFFFFF"></path>
                        </g>
                        <g id="terminal-ic" transform="translate(448.000000, 0.000000)">
                            <circle id="Oval" cx="22" cy="22" r="22"></circle>
                            <path d="M9,12.0049466 L9,31.9950534 C9,32.5507058 9.44883132,33 10.0024542,33 L33.9975458,33 C34.5489625,33 35,32.5489252 35,31.9950534 L35,12.0049466 C35,11.4492942 34.5511687,11 33.9975458,11 L10.0024542,11 C9.45103748,11 9,11.4510748 9,12.0049466 Z M8,12.0049466 C8,10.8976452 8.89989752,10 10.0024542,10 L33.9975458,10 C35.1034707,10 36,10.8970262 36,12.0049466 L36,31.9950534 C36,33.1023548 35.1001025,34 33.9975458,34 L10.0024542,34 C8.89652926,34 8,33.1029738 8,31.9950534 L8,12.0049466 Z" id="Rectangle-2" fill="#FFFFFF"></path>
                            <path d="M16,18.5 L20,18.5 L20,19.5 L16,19.5 L16,18.5 Z M16.0503953,15.214194 L16.0503953,16.285806 L12.2916248,17.6538866 L11.9496047,16.714194 L14.5987059,15.75 L11.9496047,14.785806 L12.2916248,13.8461134 L16.0503953,15.214194 Z" id="Combined-Shape" fill="#FFFFFF"></path>
                        </g>
                        <g id="settings-ic" transform="translate(512.000000, 0.000000)">
                            <circle id="Oval" cx="22" cy="22" r="22"></circle>
                            <path d="M27.5,23 L16.5,23 C13.7395,23 11.5,25.2385 11.5,28 C11.5,30.7605 13.7395,33 16.5,33 L27.5,33 C30.2615,33 32.5,30.7605 32.5,28 C32.5,25.238 30.2615,23 27.5,23 L27.5,23 Z M27.5,32 L16.5,32 C14.291,32 12.5,30.209 12.5,28 C12.5,25.791 14.291,24 16.5,24 L27.5,24 C29.709,24 31.5,25.791 31.5,28 C31.5,30.209 29.709,32 27.5,32 L27.5,32 Z M27.5,11 L16.5,11 C13.7395,11 11.5,13.2385 11.5,16 C11.5,18.7605 13.7395,21 16.5,21 L27.5,21 C30.2615,21 32.5,18.7605 32.5,16 C32.5,13.238 30.2615,11 27.5,11 L27.5,11 Z M27.5,20 L16.5,20 C14.291,20 12.5,18.209 12.5,16 C12.5,13.791 14.291,12 16.5,12 L27.5,12 C29.709,12 31.5,13.791 31.5,16 C31.5,18.209 29.709,20 27.5,20 L27.5,20 Z M27.5,25 C25.844,25 24.5,26.343 24.5,28 C24.5,29.656 25.844,31 27.5,31 C29.157,31 30.5,29.656 30.5,28 C30.5,26.3425 29.157,25 27.5,25 L27.5,25 Z M27.5,30 C26.3955,30 25.5,29.1045 25.5,28 C25.5,26.8955 26.3955,26 27.5,26 C28.6045,26 29.5,26.8955 29.5,28 C29.5,29.1045 28.6045,30 27.5,30 L27.5,30 Z M16.5,13 C14.844,13 13.5,14.343 13.5,16 C13.5,17.656 14.844,19 16.5,19 C18.157,19 19.5,17.656 19.5,16 C19.5,14.3425 18.157,13 16.5,13 L16.5,13 Z M16.5,18 C15.3955,18 14.5,17.1045 14.5,16 C14.5,14.8955 15.3955,14 16.5,14 C17.6045,14 18.5,14.8955 18.5,16 C18.5,17.1045 17.6045,18 16.5,18 L16.5,18 Z" fill="#FFFFFF"></path>
                        </g>
                        <g id="summary-ic" transform="translate(576.000000, 0.000000)">
                            <circle id="Oval" cx="22" cy="22" r="22"></circle>
                            <path d="M29.093683,20.7988506 C29.093683,16.2245559 25.3731085,12.5 20.7988269,12.5 C16.2245453,12.5 12.5,16.2205852 12.5,20.7988506 C12.5,25.3731452 16.2205745,29.0937304 20.7948561,29.0937304 L20.7948561,29.0937304 C20.9219195,29.0937304 21.0410414,29.0421108 21.1323682,28.9547544 C21.223695,28.8634274 21.2713438,28.7443051 21.2713438,28.6172414 L21.2713438,21.2753396 L28.6171953,21.2753396 C28.8832343,21.2753396 29.093683,21.0609195 29.093683,20.7988506 L29.093683,20.7988506 Z M20.7988269,20.3223615 C20.5367587,20.3223615 20.3223392,20.5367816 20.3223392,20.7988506 L20.3223392,28.1248694 C16.4945549,27.8786834 13.4569461,24.6862069 13.4569461,20.7988506 C13.4569461,16.7486938 16.7526524,13.4529781 20.8027976,13.4529781 C24.6901428,13.4529781 27.8865809,16.4905956 28.1327662,20.3223615 L20.7988269,20.3223615 Z M31.0274288,22.7286311 C31.289497,22.7286311 31.5039165,22.9430512 31.4999457,23.2051202 C31.4999457,25.4207941 30.6382972,27.5014629 29.0698586,29.069906 C27.5053908,30.638349 25.4207572,31.5 23.2050896,31.5 C22.9430214,31.5 22.7286019,31.2855799 22.7286019,31.023511 L22.7286019,23.2051202 C22.7286019,22.9430512 22.9430214,22.7286311 23.2050896,22.7286311 L31.0274288,22.7286311 Z M23.6815773,30.5351097 C27.3505323,30.2968652 30.2968144,27.3545455 30.5350582,23.6816092 L23.6815773,23.6816092 L23.6815773,30.5351097 Z" id="pie-chart" fill="#FFFFFF"></path>
                        </g>
                        <g id="send-ic" transform="translate(640.000000, 0.000000)">
                            <circle id="Oval" cx="22" cy="22" r="22"></circle>
                            <path d="M21.6999035,13.3583032 C21.7038994,13.354292 21.7118913,13.3502808 21.7198833,13.3462696 C21.7278752,13.3422583 21.7318712,13.3382471 21.7398631,13.3302246 C21.747855,13.3262134 21.7558469,13.3222022 21.7598429,13.3181909 C21.7678348,13.3141797 21.7718308,13.3101685 21.7798227,13.3061572 C21.7878146,13.302146 21.7958066,13.2981348 21.8037985,13.2941235 C21.8117904,13.2901123 21.8157864,13.2861011 21.8237783,13.2861011 C21.8317702,13.2820899 21.8397621,13.2820899 21.8477541,13.2780786 C21.855746,13.2740674 21.8637379,13.2740674 21.8717298,13.2700562 C21.8797218,13.2660449 21.8877137,13.2660449 21.8957056,13.2660449 C21.9036975,13.2660449 21.9116895,13.2620337 21.9196814,13.2620337 C21.9276733,13.2620337 21.9356652,13.2580225 21.9436572,13.2580225 C21.9516491,13.2580225 21.955645,13.2540112 21.963637,13.2540112 C21.9796208,13.2540112 21.9956047,13.25 22.0115885,13.25 C22.0275724,13.25 22.0435562,13.25 22.0595401,13.2540112 C22.067532,13.2540112 22.0755239,13.2580225 22.0795199,13.2580225 C22.0875118,13.2580225 22.0955037,13.2620337 22.1034957,13.2620337 C22.1114876,13.2620337 22.1194795,13.2660449 22.1274714,13.2660449 C22.1354634,13.2660449 22.1434553,13.2700562 22.1514472,13.2700562 C22.1594391,13.2740674 22.1674311,13.2740674 22.175423,13.2780786 C22.1834149,13.2820899 22.1914068,13.2820899 22.1993988,13.2861011 C22.2073907,13.2901123 22.2113866,13.2941235 22.2193786,13.2941235 C22.2273705,13.2981348 22.2353624,13.302146 22.2433543,13.3061572 C22.2513463,13.3101685 22.2553422,13.3141797 22.2633341,13.3181909 C22.2713261,13.3222022 22.279318,13.3262134 22.283314,13.3302246 C22.2913059,13.3342359 22.2953018,13.3382471 22.3032938,13.3462696 C22.3112857,13.3502808 22.3152817,13.354292 22.3232736,13.3583032 C22.3352615,13.3663257 22.3472494,13.3783594 22.3552413,13.3863819 L24.2613153,15.2997393 C24.4491256,15.4882671 24.4491256,15.7931207 24.2613153,15.9816486 C24.0735051,16.1701765 23.769812,16.1701765 23.5820017,15.9816486 L22.4831121,14.8905937 L22.4831121,22.5612716 C22.4831121,22.8260128 22.2673301,23.0426193 22.0035966,23.0426193 C21.7398631,23.0426193 21.5240811,22.8260128 21.5240811,22.5612716 L21.5240811,14.8905937 L20.4451713,15.9736262 C20.257361,16.162154 19.9536679,16.162154 19.7658577,15.9736262 C19.5780474,15.7850983 19.5780474,15.4802447 19.7658577,15.2917168 L21.6639398,13.3903931 C21.6759277,13.3783594 21.6879156,13.3663257 21.6999035,13.3583032 Z M15.5,25.5 C15.5,25.2238576 15.7256393,25 15.993741,25 L28.006259,25 C28.2789446,25 28.5,25.2319336 28.5,25.5 C28.5,25.7761424 28.2743607,26 28.006259,26 L15.993741,26 C15.7210554,26 15.5,25.7680664 15.5,25.5 Z M13.5028685,20.0062585 L13.5028685,26.9915594 C13.5028685,27.5430031 13.9504958,28 14.5026721,28 L29.5004014,28 C30.0455672,28 30.5002049,27.5485058 30.5002049,26.9915594 L30.5002049,20.0062585 C30.5002049,19.7273545 30.7240167,19.5 31.0001024,19.5 C31.2681139,19.5 31.5,19.7226184 31.5,19.9972322 L31.5,27.0061734 C31.5,28.1036093 30.6056712,28.9972085 29.5024606,28.9973786 L14.4964222,28.999692 C13.3898606,28.9998626 12.4992761,28.10837 12.4997613,27.0084887 L12.502854,19.9973856 C12.502978,19.7162701 12.7268852,19.5 13.002971,19.5 C13.2709825,19.5 13.5028685,19.7266596 13.5028685,20.0062585 Z" id="Combined-Shape" fill="#FFFFFF"></path>
                        </g>
                        <g id="receive-ic" transform="translate(0.000000, 64.000000)">
                            <circle id="Oval" cx="22" cy="22" r="22"></circle>
                            <path d="M21.6999035,22.9343161 C21.6879156,22.9262936 21.6759277,22.9142599 21.6639398,22.9022262 L19.7658577,21.0009025 C19.5780474,20.8123746 19.5780474,20.5075211 19.7658577,20.3189932 C19.9536679,20.1304653 20.257361,20.1304653 20.4451713,20.3189932 L21.5240811,21.4020257 L21.5240811,13.7313478 C21.5240811,13.4666065 21.7398631,13.25 22.0035966,13.25 C22.2673301,13.25 22.4831121,13.4666065 22.4831121,13.7313478 L22.4831121,21.4020257 L23.5820017,20.3109707 C23.769812,20.1224428 24.0735051,20.1224428 24.2613153,20.3109707 C24.4491256,20.4994986 24.4491256,20.8043522 24.2613153,20.9928801 L22.3552413,22.9062375 C22.3472494,22.9142599 22.3352615,22.9262936 22.3232736,22.9343161 C22.3152817,22.9383273 22.3112857,22.9423385 22.3032938,22.9463498 C22.2953018,22.9543722 22.2913059,22.9583835 22.283314,22.9623947 C22.279318,22.9664059 22.2713261,22.9704172 22.2633341,22.9744284 C22.2553422,22.9784396 22.2513463,22.9824509 22.2433543,22.9864621 C22.2353624,22.9904733 22.2273705,22.9944846 22.2193786,22.9984958 C22.2113866,22.9984958 22.2073907,23.002507 22.1993988,23.0065183 C22.1914068,23.0105295 22.1834149,23.0105295 22.175423,23.0145407 C22.1674311,23.0185519 22.1594391,23.0185519 22.1514472,23.0225632 C22.1434553,23.0225632 22.1354634,23.0265744 22.1274714,23.0265744 C22.1194795,23.0265744 22.1114876,23.0305856 22.1034957,23.0305856 C22.0955037,23.0305856 22.0875118,23.0345969 22.0795199,23.0345969 C22.0755239,23.0345969 22.067532,23.0386081 22.0595401,23.0386081 C22.0435562,23.0426193 22.0275724,23.0426193 22.0115885,23.0426193 C21.9956047,23.0426193 21.9796208,23.0386081 21.963637,23.0386081 C21.955645,23.0386081 21.9516491,23.0345969 21.9436572,23.0345969 C21.9356652,23.0345969 21.9276733,23.0305856 21.9196814,23.0305856 C21.9116895,23.0305856 21.9036975,23.0265744 21.8957056,23.0265744 C21.8877137,23.0265744 21.8797218,23.0265744 21.8717298,23.0225632 C21.8637379,23.0185519 21.855746,23.0185519 21.8477541,23.0145407 C21.8397621,23.0105295 21.8317702,23.0105295 21.8237783,23.0065183 C21.8157864,23.0065183 21.8117904,23.002507 21.8037985,22.9984958 C21.7958066,22.9944846 21.7878146,22.9904733 21.7798227,22.9864621 C21.7718308,22.9824509 21.7678348,22.9784396 21.7598429,22.9744284 C21.7558469,22.9704172 21.747855,22.9664059 21.7398631,22.9623947 C21.7318712,22.9543722 21.7278752,22.950361 21.7198833,22.9463498 C21.7118913,22.9423385 21.7038994,22.9383273 21.6999035,22.9343161 Z M15.5,25.5 C15.5,25.2238576 15.7256393,25 15.993741,25 L28.006259,25 C28.2789446,25 28.5,25.2319336 28.5,25.5 C28.5,25.7761424 28.2743607,26 28.006259,26 L15.993741,26 C15.7210554,26 15.5,25.7680664 15.5,25.5 Z M13.5028685,20.0062585 L13.5028685,26.9915594 C13.5028685,27.5430031 13.9504958,28 14.5026721,28 L29.5004014,28 C30.0455672,28 30.5002049,27.5485058 30.5002049,26.9915594 L30.5002049,20.0062585 C30.5002049,19.7273545 30.7240167,19.5 31.0001024,19.5 C31.2681139,19.5 31.5,19.7226184 31.5,19.9972322 L31.5,27.0061734 C31.5,28.1036093 30.6056712,28.9972085 29.5024606,28.9973786 L14.4964222,28.999692 C13.3898606,28.9998626 12.4992761,28.10837 12.4997613,27.0084887 L12.502854,19.9973856 C12.502978,19.7162701 12.7268852,19.5 13.002971,19.5 C13.2709825,19.5 13.5028685,19.7266596 13.5028685,20.0062585 Z" id="Combined-Shape" fill="#FFFFFF"></path>
                        </g>
                        <g id="transactions-ic" transform="translate(64.000000, 64.000000)">
                            <circle id="Oval" cx="22" cy="22" r="22"></circle>
                            <path d="M30.7610132,12.5 L13.2389868,12.5 C12.9700441,12.5 12.75,12.7189033 12.75,12.9864519 C12.75,13.2540004 12.9700441,13.4729038 13.2389868,13.4729038 L14.2943833,13.4729038 L14.2943833,31.0013868 C14.2943833,31.1797525 14.3921806,31.3459569 14.5511013,31.431086 C14.710022,31.5162151 14.9015419,31.5081075 15.0523128,31.4067634 L17.1753304,30.0001067 L19.3064978,31.4108172 C19.4694934,31.5202688 19.6854626,31.5202688 19.8484581,31.4108172 L21.9714758,30.0041604 L24.1026432,31.4148709 C24.2656388,31.5243226 24.4816079,31.5243226 24.6446035,31.4148709 L26.7676211,30.0082142 L28.8987885,31.4189247 C28.9802863,31.4716236 29.0740088,31.5 29.1677313,31.5 C29.2451542,31.5 29.326652,31.4797312 29.4,31.4432473 C29.5589207,31.3581182 29.6567181,31.1919138 29.6567181,31.0135481 L29.6485683,13.4850651 L30.7610132,13.4850651 C31.0299559,13.4850651 31.25,13.2661617 31.25,12.9986132 C31.25,12.7310646 31.0299559,12.5 30.7610132,12.5 L30.7610132,12.5 Z M28.6828194,30.0933433 L27.0406388,29.0069341 C26.8776432,28.8974824 26.661674,28.8974824 26.4986784,29.0069341 L24.3756608,30.4176445 L22.2444934,29.0069341 C22.0814978,28.8974824 21.8655286,28.8974824 21.702533,29.0069341 L19.5795154,30.4135908 L17.448348,29.0069341 C17.2853524,28.8974824 17.0693833,28.8974824 16.9063877,29.0069341 L15.2723568,30.0892895 L15.2723568,13.46885 L28.6787445,13.46885 L28.6828194,30.0933433 Z M17.521696,20.2670151 L22.6438326,20.2670151 C22.9127753,20.2670151 23.1328194,20.0481118 23.1328194,19.7805633 C23.1328194,19.5130147 22.9127753,19.2941114 22.6438326,19.2941114 L17.521696,19.2941114 C17.2527533,19.2941114 17.0327093,19.5130147 17.0327093,19.7805633 C17.0327093,20.0481118 17.2486784,20.2670151 17.521696,20.2670151 Z M17.521696,21.9574355 L21.3602423,21.9574355 C21.629185,21.9574355 21.8492291,21.7385321 21.8492291,21.4709836 C21.8492291,21.203435 21.629185,20.9845317 21.3602423,20.9845317 L17.521696,20.9845317 C17.2527533,20.9845317 17.0327093,21.203435 17.0327093,21.4709836 C17.0327093,21.7385321 17.2486784,21.9574355 17.521696,21.9574355 Z M25.2028634,20.2670151 L26.4823789,20.2670151 C26.7513216,20.2670151 26.9713656,20.0481118 26.9713656,19.7805633 C26.9713656,19.5130147 26.7513216,19.2941114 26.4823789,19.2941114 L25.2028634,19.2941114 C24.9339207,19.2941114 24.7138767,19.5130147 24.7138767,19.7805633 C24.7138767,20.0481118 24.9298458,20.2670151 25.2028634,20.2670151 Z M25.2028634,21.9574355 L26.4823789,21.9574355 C26.7513216,21.9574355 26.9713656,21.7385321 26.9713656,21.4709836 C26.9713656,21.203435 26.7513216,20.9845317 26.4823789,20.9845317 L25.2028634,20.9845317 C24.9339207,20.9845317 24.7138767,21.203435 24.7138767,21.4709836 C24.7138767,21.7385321 24.9298458,21.9574355 25.2028634,21.9574355 Z M17.521696,16.3632387 L22.6438326,16.3632387 C22.9127753,16.3632387 23.1328194,16.1443354 23.1328194,15.8767869 C23.1328194,15.6092383 22.9127753,15.390335 22.6438326,15.390335 L17.521696,15.390335 C17.2527533,15.390335 17.0327093,15.6092383 17.0327093,15.8767869 C17.0327093,16.1443354 17.2486784,16.3632387 17.521696,16.3632387 Z M17.521696,18.0496053 L21.3602423,18.0496053 C21.629185,18.0496053 21.8492291,17.8307019 21.8492291,17.5631534 C21.8492291,17.2956049 21.629185,17.0767015 21.3602423,17.0767015 L17.521696,17.0767015 C17.2527533,17.0767015 17.0327093,17.2956049 17.0327093,17.5631534 C17.0327093,17.8307019 17.2486784,18.0496053 17.521696,18.0496053 Z M25.2028634,16.3632387 L26.4823789,16.3632387 C26.7513216,16.3632387 26.9713656,16.1443354 26.9713656,15.8767869 C26.9713656,15.6092383 26.7513216,15.390335 26.4823789,15.390335 L25.2028634,15.390335 C24.9339207,15.390335 24.7138767,15.6092383 24.7138767,15.8767869 C24.7138767,16.1443354 24.9298458,16.3632387 25.2028634,16.3632387 Z M25.2028634,18.0496053 L26.4823789,18.0496053 C26.7513216,18.0496053 26.9713656,17.8307019 26.9713656,17.5631534 C26.9713656,17.2956049 26.7513216,17.0767015 26.4823789,17.0767015 L25.2028634,17.0767015 C24.9339207,17.0767015 24.7138767,17.2956049 24.7138767,17.5631534 C24.7138767,17.8307019 24.9298458,18.0496053 25.2028634,18.0496053 Z M17.521696,24.2194367 L22.6438326,24.2194367 C22.9127753,24.2194367 23.1328194,24.0005334 23.1328194,23.7329849 C23.1328194,23.4654363 22.9127753,23.246533 22.6438326,23.246533 L17.521696,23.246533 C17.2527533,23.246533 17.0327093,23.4654363 17.0327093,23.7329849 C17.0327093,24.0005334 17.2486784,24.2194367 17.521696,24.2194367 Z M17.521696,25.9058033 L21.3602423,25.9058033 C21.629185,25.9058033 21.8492291,25.6868999 21.8492291,25.4193514 C21.8492291,25.1518029 21.629185,24.9328995 21.3602423,24.9328995 L17.521696,24.9328995 C17.2527533,24.9328995 17.0327093,25.1518029 17.0327093,25.4193514 C17.0327093,25.6868999 17.2486784,25.9058033 17.521696,25.9058033 Z M25.2028634,24.2194367 L26.4823789,24.2194367 C26.7513216,24.2194367 26.9713656,24.0005334 26.9713656,23.7329849 C26.9713656,23.4654363 26.7513216,23.246533 26.4823789,23.246533 L25.2028634,23.246533 C24.9339207,23.246533 24.7138767,23.4654363 24.7138767,23.7329849 C24.7138767,24.0005334 24.9298458,24.2194367 25.2028634,24.2194367 Z M25.2028634,25.9058033 L26.4823789,25.9058033 C26.7513216,25.9058033 26.9713656,25.6868999 26.9713656,25.4193514 C26.9713656,25.1518029 26.7513216,24.9328995 26.4823789,24.9328995 L25.2028634,24.9328995 C24.9339207,24.9328995 24.7138767,25.1518029 24.7138767,25.4193514 C24.7138767,25.6868999 24.9298458,25.9058033 25.2028634,25.9058033 Z" id="invoice" fill="#FFFFFF"></path>
                        </g>
                        <g id="contacts-ic" transform="translate(128.000000, 64.000000)">
                            <circle id="Oval" cx="22" cy="22" r="22"></circle>
                            <path d="M34.8495,19.807 L31.2235,18.1165 C31.1515,18.076 31.073,18.047 30.984,18.047 C30.7075,18.047 30.484,18.271 30.484,18.547 C30.484,18.93 30.9995,19.108 30.9995,19.108 L34.429,20.7075 C34.926,20.9395 35.1415,21.5305 34.9095,22.0275 L30.2925,31.93 C30.06,32.427 29.4695,32.642 28.972,32.4105 L26.236,31.1345 L26.2315,31.143 C26.161,31.105 26.0845,31.078 25.999,31.078 C25.7225,31.078 25.499,31.302 25.499,31.578 C25.499,31.798 25.643,31.979 25.8405,32.046 L28.552,33.3105 C29.546,33.774 30.729,33.344 31.192,32.3495 L35.8095,22.447 C36.2745,21.453 35.844,20.271 34.8495,19.807 L34.8495,19.807 Z M29,27.5 L29,15.5 C29,14.3955 28.1045,13.5 27,13.5 L15,13.5 C13.8955,13.5 13,14.3955 13,15.5 L13,27.5 C13,28.6045 13.8955,29.5 15,29.5 L27,29.5 C28.1045,29.5 29,28.605 29,27.5 L29,27.5 Z M16.996,28.5 C17.0535,28.3245 17.112,27.313 17.1655,27.2335 C17.225,27.1685 17.489,26.6085 19.1885,26.542 L19.19,26.542 C19.9475,26.542 20.5,26.3085 20.5,25.5 C20.5,25.5 20.496,24.4595 20.5,24.5 L20.5,24 L19.9255,23.7495 C19.519,23.4685 19.062,23.0305 18.8985,22.8655 L18.8785,22.7425 C18.7365,22.046 18.511,20.778 18.511,20.3425 C18.511,18.7225 19.2785,17.9995 21.0005,17.9995 C22.7225,17.9995 23.49,18.722 23.49,20.3425 C23.49,20.744 23.2745,21.9885 23.1225,22.7445 L23.1025,22.8425 C23.1025,22.8425 22.37,23.533 22.08,23.766 L21.5,24 L21.5,24.5 C21.5095,24.4295 21.5,25.5 21.5,25.5 C21.5,26.309 22.053,26.543 22.85,26.543 C24.585,26.618 24.808,27.1995 24.8315,27.2275 C24.8925,27.3185 24.948,28.325 25.005,28.5 L16.996,28.5 L16.996,28.5 Z M25.6525,26.657 C25.6525,26.657 25.3405,25.6495 22.8505,25.5425 C22.6005,25.5425 22.4755,25.386 22.4755,25.146 L22.4755,24.7995 C22.4755,24.758 22.483,24.721 22.4845,24.6805 C22.679,24.553 22.8325,24.4205 23.1715,24.1065 C23.1715,24.1065 24.024,23.526 24.102,22.943 C24.102,22.943 24.4895,21.026 24.4895,20.343 C24.4895,18.618 23.683,17 21,17 C18.281,17 17.5105,18.6175 17.5105,20.343 C17.5105,21.043 17.898,22.943 17.898,22.943 C17.992,23.5585 18.8285,24.1065 18.8285,24.1065 C19.2065,24.4215 19.258,24.488 19.476,24.661 C19.479,24.7085 19.4865,24.7515 19.4865,24.7995 L19.4865,25.146 C19.4865,25.3855 19.3615,25.5425 19.1115,25.5425 C16.6585,25.6375 16.347,26.657 16.347,26.657 C16.1685,26.9255 16.076,28.178 15.9015,28.5 L15,28.5 C14.448,28.5 14,28.052 14,27.5 L14,15.5 C14,14.948 14.448,14.5 15,14.5 L27,14.5 C27.552,14.5 28,14.948 28,15.5 L28,27.5 C28,28.052 27.552,28.5 27,28.5 L26.0975,28.5 C25.9235,28.178 25.831,26.926 25.6525,26.657 L25.6525,26.657 Z" fill="#FFFFFF"></path>
                        </g>
                        <g id="wallet-settings-2-ic" transform="translate(192.000000, 64.000000)">
                            <circle id="Oval" cx="22" cy="22" r="22"></circle>
                            <path d="M30.5620763,20.0532952 L29.1853814,19.8197711 C29.0444915,19.352723 28.8552966,18.8977538 28.621822,18.4629159 L29.4309322,17.3275058 C29.7529661,16.8765628 29.7006356,16.268595 29.3101695,15.8780462 L28.1226695,14.6902946 C27.909322,14.4769019 27.6275424,14.3601399 27.3256356,14.3601399 C27.092161,14.3601399 26.8667373,14.4326128 26.6735169,14.5695063 L25.534322,15.3787879 C25.0875,15.1412376 24.6205508,14.9479763 24.1334746,14.8030303 L23.9040254,13.4421488 C23.8194915,12.8945751 23.3525424,12.5 22.8010593,12.5 L21.1184322,12.5 C20.5669492,12.5 20.1,12.8945751 20.0074153,13.4381225 L19.7699153,14.827188 C19.3029661,14.9721339 18.8480932,15.1613689 18.4173729,15.3989193 L17.2942797,14.5976902 C17.1010593,14.4607968 16.8756356,14.3883238 16.642161,14.3883238 C16.3402542,14.3883238 16.0584746,14.5050858 15.8451271,14.7184785 L14.6576271,15.9062301 C14.267161,16.296779 14.2148305,16.9047468 14.5368644,17.3556898 L15.3540254,18.5072049 C15.1245763,18.9420428 14.9394068,19.3970121 14.8025424,19.8680865 L13.4419492,20.0975842 C12.8944915,20.182136 12.5,20.6491841 12.5,21.2007841 L12.5,22.8837677 C12.5,23.4353677 12.8944915,23.9024158 13.4379237,23.9950201 L14.8266949,24.2325705 C14.9716102,24.6996186 15.1608051,25.1545878 15.3983051,25.5853994 L14.5972458,26.7087307 C14.2752119,27.1596737 14.3275424,27.7676414 14.7180085,28.1581903 L15.9055085,29.3459419 C16.1188559,29.5593346 16.4006356,29.6760966 16.7025424,29.6760966 C16.9360169,29.6760966 17.1614407,29.6036236 17.354661,29.4667302 L18.5059322,28.6493961 C18.9245763,28.8708413 19.3673729,29.0520237 19.8182203,29.1889171 L20.0476695,30.5618775 C20.1402542,31.1054249 20.6072034,31.5 21.1586864,31.5 L22.8413136,31.5 C23.3927966,31.5 23.8597458,31.1054249 23.9523305,30.5618775 L24.1858051,29.1848909 C24.6527542,29.0439712 25.1076271,28.8547362 25.5423729,28.6212121 L26.6775424,29.4304937 C26.8707627,29.5673872 27.0961864,29.6398601 27.329661,29.6398601 L27.329661,29.6398601 C27.6315678,29.6398601 27.9133475,29.5230981 28.1266949,29.3097054 L29.3141949,28.1219538 C29.704661,27.731405 29.7569915,27.1234372 29.4349576,26.6724942 L28.6258475,25.5330579 C28.859322,25.09822 29.0444915,24.647277 29.1894068,24.1762026 L30.5620763,23.9467048 C31.1055085,23.8541004 31.5,23.3870523 31.5,22.8354524 L31.5,21.1524687 C31.5,20.6129477 31.1055085,20.1458996 30.5620763,20.0532952 L30.5620763,20.0532952 Z M30.5338983,22.843505 C30.5338983,22.9200042 30.4775424,22.9884509 30.4010593,23.0005298 L28.7264831,23.2823691 C28.5372881,23.3145794 28.384322,23.4514728 28.3400424,23.6366815 C28.1870763,24.2285442 27.9536017,24.7962492 27.6396186,25.3236915 C27.5430085,25.4887688 27.5510593,25.6941089 27.6597458,25.8511337 L28.6459746,27.2401992 C28.6902542,27.3046196 28.6822034,27.3891714 28.6298729,27.4455393 L27.4423729,28.633291 C27.4021186,28.6735537 27.3538136,28.6816063 27.329661,28.6816063 C27.3055085,28.6816063 27.2733051,28.67758 27.2370763,28.6534223 L25.8523305,27.6669845 C25.695339,27.5542488 25.4900424,27.5461962 25.325,27.6428269 C24.7976695,27.9568765 24.2300847,28.1904005 23.6383475,28.343399 C23.453178,28.3917143 23.3163136,28.5406866 23.2841102,28.7299216 L22.9983051,30.408879 C22.9862288,30.4853783 22.9177966,30.5417461 22.8413136,30.5417461 L21.1586864,30.5417461 C21.0822034,30.5417461 21.0137712,30.4853783 21.0016949,30.408879 L20.7199153,28.7339479 C20.6877119,28.5447129 20.5508475,28.3917143 20.365678,28.3474253 C19.7900424,28.1984531 19.2345339,27.9689553 18.7152542,27.6710108 C18.6387712,27.6267218 18.5542373,27.6065904 18.4737288,27.6065904 C18.3771186,27.6065904 18.2764831,27.6347743 18.1959746,27.6951685 L16.7991525,28.6856325 C16.7629237,28.7097902 16.7307203,28.7138165 16.7065678,28.7138165 C16.6824153,28.7138165 16.6341102,28.7057639 16.5938559,28.6655012 L15.3983051,27.4737232 C15.3419492,27.4173554 15.3338983,27.3328036 15.3822034,27.2683831 L16.3644068,25.8913965 C16.4771186,25.7343717 16.4851695,25.5290316 16.3845339,25.3639542 C16.0705508,24.8405382 15.8290254,24.2728332 15.6760593,23.6809705 C15.6277542,23.4997881 15.4747881,23.3588684 15.2896186,23.3266582 L13.5989407,23.0407925 C13.5224576,23.0287137 13.4661017,22.960267 13.4661017,22.8837677 L13.4661017,21.2007841 C13.4661017,21.1242848 13.5224576,21.0558381 13.5989407,21.0437593 L15.2654661,20.7659462 C15.454661,20.733736 15.6076271,20.5928163 15.6559322,20.4076075 C15.8048729,19.8157449 16.034322,19.2480398 16.3442797,18.7165713 C16.4408898,18.551494 16.4288136,18.3501801 16.3201271,18.1931553 L15.3298729,16.7960373 C15.2855932,16.7316169 15.2936441,16.6470651 15.3459746,16.5906972 L16.5294492,15.3989193 C16.5697034,15.3586565 16.6180085,15.3506039 16.642161,15.3506039 C16.6663136,15.3506039 16.6985169,15.3546302 16.7347458,15.3787879 L18.1114407,16.3611994 C18.2684322,16.4739352 18.4737288,16.4819877 18.6387712,16.3813308 C19.1620763,16.0672812 19.729661,15.8257046 20.3213983,15.6727061 C20.5025424,15.6243908 20.6434322,15.4713922 20.6756356,15.2861835 L20.9614407,13.5951473 C20.9735169,13.518648 21.0419492,13.4622801 21.1184322,13.4622801 L22.8010593,13.4622801 C22.8775424,13.4622801 22.9459746,13.518648 22.9580508,13.5951473 L23.2358051,15.2620259 C23.2680085,15.4512609 23.4088983,15.6042594 23.5940678,15.6525747 C24.2019068,15.8055732 24.7815678,16.0431235 25.3209746,16.3611994 C25.4860169,16.45783 25.6913136,16.4497775 25.8483051,16.341068 L27.2370763,15.3546302 C27.2733051,15.3304726 27.3055085,15.3264463 27.329661,15.3264463 C27.3538136,15.3264463 27.4021186,15.3344988 27.4423729,15.3747616 L28.6298729,16.5625132 C28.6862288,16.6188811 28.6942797,16.7034329 28.6459746,16.7678534 L27.6597458,18.1528926 C27.5470339,18.3099174 27.5389831,18.5152575 27.6355932,18.6803348 C27.9495763,19.2077771 28.1830508,19.7754821 28.3360169,20.3673448 C28.384322,20.5525535 28.5332627,20.6894469 28.7224576,20.7216571 L30.4010593,21.0075228 C30.4775424,21.0196016 30.5338983,21.0880483 30.5338983,21.1645476 L30.5338983,22.843505 L30.5338983,22.843505 L30.5338983,22.843505 Z" id="settings" fill="#FFFFFF"></path>
                            <path d="M22,25.5 C20.0670034,25.5 18.5,23.9329966 18.5,22 C18.5,20.0670034 20.0670034,18.5 22,18.5 C23.9329966,18.5 25.5,20.0670034 25.5,22 C25.5,23.9329966 23.9329966,25.5 22,25.5 Z M22,24.5 C23.3807119,24.5 24.5,23.3807119 24.5,22 C24.5,20.6192881 23.3807119,19.5 22,19.5 C20.6192881,19.5 19.5,20.6192881 19.5,22 C19.5,23.3807119 20.6192881,24.5 22,24.5 Z" id="Combined-Shape" fill="#FFFFFF"></path>
                        </g>
                        <g id="attach-ic" transform="translate(267.000000, 75.000000)" fill="#FFFFFF">
                            <path d="M11.5,10.5 L17,10.5 L17,11.5 L11.5,11.5 L11.5,17 L10.5,17 L10.5,11.5 L5,11.5 L5,10.5 L10.5,10.5 L10.5,5 L11.5,5 L11.5,10.5 Z M17,3.55271368e-15 L20.008845,3.55271368e-15 C21.1085295,3.55271368e-15 22,0.889673948 22,1.991155 L22,5 L21,5 L21,1.99180311 C21,1.45530558 20.5559546,1 20.0081969,1 L17,1 L17,3.55271368e-15 Z M5,3.55271368e-15 L5,1 L1.99180311,1 C1.45530558,1 1,1.44404538 1,1.99180311 L1,5 L7.10542736e-15,5 L7.10542736e-15,1.991155 C7.10542736e-15,0.891470458 0.889673948,3.55271368e-15 1.991155,3.55271368e-15 L5,3.55271368e-15 Z M17,22 L17,21 L20.0081969,21 C20.5446944,21 21,20.5559546 21,20.0081969 L21,17 L22,17 L22,20.008845 C22,21.1085295 21.1103261,22 20.008845,22 L17,22 Z M5,22 L1.991155,22 C0.891470458,22 7.10542736e-15,21.1103261 7.10542736e-15,20.008845 L7.10542736e-15,17 L1,17 L1,20.0081969 C1,20.5446944 1.44404538,21 1.99180311,21 L5,21 L5,22 Z"></path>
                        </g>
                        <g id="join-shared-ic" transform="translate(320.000000, 64.000000)">
                            <circle id="Oval" cx="22" cy="22" r="22"></circle>
                            <g id="people" transform="translate(10.500000, 14.000000)" stroke="#FFFFFF" stroke-linecap="round" stroke-linejoin="round">
                                <path d="M4.94605009,9.07955065 C4.94606103,9.07892968 4.94602574,9.0786482 4.94598078,9.07828951 C4.94595854,9.07914737 4.9459408,9.07983138 4.94592452,9.08054151 Z M0.626724271,12.8331594 C0.622463926,12.838645 0.62286286,12.8379699 0.630860849,12.827034 C0.635300858,12.8203888 0.639191771,12.8151855 0.642592849,12.8112462 Z M5.22085096,9.1511013 C5.22069316,9.13688248 5.22049453,9.1260595 5.22013304,9.10749527 C5.19084644,9.10577942 5.17585978,9.1053533 5.22085096,9.1511013 Z M5.22013304,9.10749527 C5.22008941,9.1052547 5.2200434,9.10290138 5.21999481,9.10041571 C5.21938549,9.0862004 5.21938549,9.0862004 5.22107386,9.10755049 C5.22075867,9.10753197 5.22044504,9.10751355 5.22013304,9.10749527 Z M6.21627409,8.75249342 L6.21627409,8.95438673 C6.25992183,8.99992264 6.24498618,9.00110331 6.2162741,9.00262041 L6.21627409,9.01191738 C6.21891955,9.04616612 6.21897044,9.04811713 6.2196325,9.07349929 C6.22088758,9.13753411 6.22088758,9.13753411 6.22140728,9.225877 C6.22189169,9.33945176 6.22158247,9.49947896 6.22064105,9.69451699 C6.21985333,9.84483385 6.21985333,9.84483385 6.21894214,9.98530055 C6.2169278,10.2613769 6.2169278,10.2613769 6.21627409,10.3333712 C6.21627409,10.9528118 6.53260427,11.1666086 7.45138183,11.1670818 C7.76980209,11.1809453 8.0619586,11.2082084 8.32914167,11.2480585 L12.7568215,11.9084425 L8.29254946,12.241205 C7.32815553,12.31309 6.58590921,12.5022823 6.04660261,12.7978483 C5.81697117,12.9236974 5.63031424,13.0653684 5.4802725,13.2234152 C5.42887248,13.2775575 5.39166338,13.322947 5.32090804,13.4195551 C5.3034799,13.4386644 5.28749809,13.4590443 5.27309502,13.4805259 C5.23065007,13.5438308 5.21110698,13.5886669 5.18790141,13.6724162 C5.17846753,13.7064633 5.17018527,13.7433398 5.16169766,13.7891848 C5.14961853,13.8544291 5.1376886,13.9354146 5.12449768,14.0418599 C5.11392119,14.1286917 5.11392119,14.1286917 5.10346105,14.2224727 L5.05478101,14.6681864 L-0.688438989,14.6681864 L-0.475475282,14.013515 C-0.475640383,14.0140225 -0.46749814,13.9709652 -0.458519821,13.9074477 C-0.441049388,13.7838524 -0.425231214,13.6372448 -0.393984513,13.3226647 C-0.363097582,13.0117067 -0.352041195,12.9052865 -0.335981844,12.7752427 C-0.299330784,12.4784532 -0.28423315,12.3966207 -0.154891523,12.2129665 C-0.186288509,12.2475121 -0.0970020318,12.1275264 -0.0180362252,12.0440577 C0.110607554,11.9080784 0.273027957,11.7822892 0.479050043,11.6689857 C0.998159551,11.3834974 1.74133507,11.2059796 2.78262233,11.1653304 C3.63491453,11.1653304 3.9471191,10.9501601 3.94712274,10.3352796 C3.94684007,10.2612201 3.94684007,10.2612201 3.94599305,9.99190837 C3.94559373,9.8485077 3.94559373,9.8485077 3.94525341,9.69450769 C3.94482692,9.44469823 3.94475585,9.3505937 3.94496508,9.23882499 C3.94518777,9.15230458 3.94518777,9.15230458 3.94567033,9.09163871 C3.94596893,9.06667013 3.94596893,9.06667013 3.94655661,9.04435815 C3.94663402,9.03916357 3.94667572,9.0363654 3.9471191,9.03047755 L3.9471191,8.73869522 L3.43229686,8.50609746 C2.98402133,8.19399346 2.45113347,7.71586797 2.05814616,7.31642642 L1.94636193,7.2028063 L1.92095859,7.04545347 L1.89912357,6.90773618 C1.6485536,5.66987966 1.42276982,4.26326249 1.42276982,3.74068471 C1.42276982,1.38728459 2.62682795,0.245694022 5.08233117,0.245694022 C6.03507681,0.245694022 6.79321275,0.410618177 7.37751589,0.763388663 L7.75899112,0.993702677 L7.5739354,1.39906952 C7.31616797,1.96371224 7.18398006,2.662171 7.18398006,3.4941558 C7.18398006,4.05509898 7.41853248,5.58893587 7.73996818,7.17663598 L7.80416871,7.57292465 L7.60779756,7.75507121 C7.23857386,8.09754934 6.94453711,8.36179025 6.76691169,8.50552824 L6.64061083,8.58006573 L6.21627409,8.75249342 Z" id="Combined-Shape" fill-rule="nonzero"></path>
                                <path d="M17.8646992,9.1511013 C17.8645415,9.13688248 17.8643428,9.1260595 17.8639813,9.10749527 C17.8346947,9.10577942 17.8197081,9.1053533 17.8646992,9.1511013 Z M17.8639813,9.10749527 C17.8639377,9.1052547 17.8638917,9.10290138 17.8638431,9.10041571 C17.8632338,9.0862004 17.8632338,9.0862004 17.8649222,9.10755049 C17.864607,9.10753197 17.8642933,9.10751355 17.8639813,9.10749527 Z M17.5898984,9.07955065 C17.5899093,9.07892968 17.589874,9.0786482 17.5898291,9.07828951 C17.5898068,9.07914737 17.5897891,9.07983138 17.5897728,9.08054151 Z M16.5909674,9.03047755 L16.5909674,8.73869522 L16.0761451,8.50609746 C15.8036239,8.31635932 15.5030858,8.0683105 15.1936782,7.78689112 L14.9835296,7.59575201 L15.0401323,7.31737684 L15.0677456,7.18158343 C15.3859498,5.59312493 15.6245306,4.02963001 15.6245306,3.4941558 C15.6245306,2.66212728 15.4923989,1.96368697 15.2347332,1.39908386 L15.0497547,0.993754484 L15.4311676,0.763465184 C16.0154835,0.410667221 16.7736041,0.245694022 17.7261795,0.245694022 C20.1819232,0.245694022 21.3857408,1.38687044 21.3857408,3.74068471 C21.3857408,4.23425734 21.1611363,5.64918625 20.9093677,6.91038859 L20.8526471,7.19031594 L20.73821,7.29896632 C20.6953102,7.33969589 20.6208742,7.4100147 20.5244099,7.5005399 C20.3636212,7.65142936 20.2013002,7.80235767 20.0474199,7.94349348 C20.028147,7.96116289 20.028147,7.96116289 20.008847,7.97882692 C19.7504613,8.21520522 19.5465105,8.39567623 19.41076,8.50552824 L19.2844591,8.58006573 L18.8601224,8.75249342 L18.8601224,8.95438673 C18.9037701,8.99992264 18.8888345,9.00110331 18.8601224,9.00262041 L18.8601224,9.01191738 C18.8627678,9.04616612 18.8628187,9.04811713 18.8634808,9.07349929 C18.8647359,9.13753411 18.8647359,9.13753411 18.8652556,9.225877 C18.86574,9.33945176 18.8654308,9.49947896 18.8644893,9.69451699 C18.8637016,9.84483385 18.8637016,9.84483385 18.8627904,9.98530055 C18.8607761,10.2613769 18.8607761,10.2613769 18.8601224,10.3333712 C18.8601224,10.9528118 19.1764526,11.1666086 20.0952301,11.1670818 C21.0949997,11.21061 21.8262792,11.3843505 22.3353826,11.6600026 C22.5581393,11.7806134 22.7302136,11.9165825 22.8587351,12.0624959 C22.9450072,12.1604426 23.0175571,12.2756566 23.004552,12.2645577 C23.0879718,12.3898976 23.1076051,12.4895972 23.1437776,12.7698854 C23.1610229,12.9035138 23.1752728,13.0378907 23.203098,13.3177391 C23.2327176,13.6156353 23.2435459,13.7194874 23.2583349,13.8380469 C23.2710176,13.9397212 23.2829686,14.0103669 23.2842521,14.0143358 L23.4957017,14.6681864 L17.7556977,14.6681864 L17.7058476,14.2239433 C17.6981884,14.1556877 17.6910347,14.0962995 17.6832175,14.0359375 C17.6693162,13.9285947 17.6564305,13.8459499 17.6431212,13.7785988 C17.6123168,13.6227139 17.594575,13.5726721 17.5296807,13.4706652 C17.5177411,13.4503849 17.5177411,13.4503849 17.5040125,13.4283808 C17.4641653,13.3653206 17.4185632,13.3045439 17.3644123,13.2432786 C17.2156449,13.0749658 17.0180713,12.9218458 16.7692134,12.7875705 C16.2344491,12.4990297 15.4933895,12.3129718 14.5317543,12.2411991 L10.0893054,11.9096322 L14.4947228,11.2481292 C14.7715342,11.2065641 15.0750398,11.1787922 15.4264706,11.1653304 C16.2787628,11.1653304 16.5909674,10.9501601 16.590971,10.3352796 C16.5906884,10.2612201 16.5906884,10.2612201 16.5898413,9.99190837 C16.589442,9.8485077 16.589442,9.8485077 16.5891017,9.69450769 C16.5886752,9.44469823 16.5886041,9.3505937 16.5888134,9.23882499 C16.5890361,9.15230458 16.5890361,9.15230458 16.5895186,9.09163871 C16.5898172,9.06667013 16.5898172,9.06667013 16.5904049,9.04435815 C16.5904823,9.03916357 16.590524,9.0363654 16.5909674,9.03047755 Z" id="Combined-Shape" fill-rule="nonzero"></path>
                                <path d="M11.6515902,9.79039217 C11.6514074,9.7781383 11.6511659,9.76573561 11.6507961,9.74688768 C11.6213595,9.7450136 11.6062491,9.74443651 11.6515902,9.79039217 Z M11.6507961,9.74688768 C11.6507838,9.74625875 11.6507713,9.74562264 11.6507587,9.74497912 C11.6500365,9.72731118 11.6500365,9.72731118 11.6515998,9.74693891 C11.6513308,9.74692175 11.6510629,9.74690466 11.6507961,9.74688768 Z M11.1593924,9.71948446 C11.1594013,9.71894113 11.1593599,9.7187885 11.1593069,9.71859284 C11.159285,9.71943086 11.1592659,9.72015939 11.1592487,9.72084519 Z M10.1605924,9.66849352 L10.1605924,9.272344 L9.52195389,8.98587901 C9.0023531,8.62537217 8.38192577,8.07063609 7.92520876,7.60803004 L7.81299668,7.49437107 L7.78745462,7.3367084 L7.76130946,7.17284793 C7.46918852,5.73473365 7.20525666,4.09616596 7.20525666,3.4941558 C7.20525666,0.795156423 8.57604341,-0.5 11.4042553,-0.5 C14.2327518,-0.5 15.603254,0.7946764 15.603254,3.4941558 C15.603254,4.06241221 15.3406829,5.7107738 15.0471816,7.17592673 L14.9859645,7.47699645 L14.8711275,7.58564795 C14.8212455,7.63284313 14.7339877,7.71498828 14.6211831,7.82048028 C14.4331604,7.99631432 14.243353,8.1721871 14.0634649,8.33660379 C14.0409405,8.3571825 14.0409405,8.3571825 14.0183862,8.37775322 C13.7171024,8.65241891 13.4792815,8.86213012 13.322086,8.9888941 L13.1958851,9.06312508 L12.6464324,9.28561795 L12.6464324,9.59251656 C12.6905259,9.63851089 12.6753402,9.63973718 12.6464324,9.64165947 L12.6464324,9.6466709 C12.6495642,9.68701921 12.6495947,9.68815562 12.6503939,9.71796899 C12.6518352,9.79126069 12.6518352,9.79126069 12.6524427,9.8938948 C12.6530085,10.0260945 12.6526469,10.2125833 12.6515459,10.4398996 C12.6506241,10.6151783 12.6506241,10.6151783 12.6495578,10.7789928 C12.6483789,10.9538487 12.6472004,11.1009729 12.6464324,11.1856234 C12.6464324,11.9623207 13.0602978,12.241067 14.1739895,12.241537 C15.3321796,12.2917874 16.1756731,12.4914924 16.7591101,12.8062952 C17.0111358,12.9422798 17.2046664,13.0946721 17.3484704,13.2573693 C17.4437713,13.3651909 17.5278838,13.4983034 17.5123028,13.4841778 C17.6279484,13.6573342 17.6356188,13.7165625 17.7312935,14.6754604 C17.7660503,15.0238102 17.7787548,15.1452321 17.7961892,15.2845143 C17.8117053,15.4084717 17.8262088,15.4939076 17.8298859,15.5052388 L18.0422297,16.1595745 L4.76502777,16.1595745 L4.97889252,15.5044159 C4.98063183,15.4990877 4.99080659,15.4454689 5.00196482,15.3668037 C5.02264056,15.2210402 5.04121572,15.0494778 5.0779237,14.6811988 C5.11400675,14.3191895 5.12692581,14.1952725 5.14561276,14.0444765 C5.18585291,13.7197551 5.20398754,13.6218027 5.29076702,13.4923747 L5.33662849,13.4338925 C5.30377482,13.4699153 5.40763098,13.3308351 5.49570303,13.2380642 C5.64029333,13.0857597 5.8234249,12.9444228 6.05682823,12.8165066 C6.65175533,12.4904578 7.50885521,12.2864384 8.71191325,12.2395757 C9.75173085,12.2395757 10.1605924,11.9587682 10.1605961,11.1875385 C10.1602652,11.1011631 10.1602652,11.1011631 10.1592738,10.7870142 C10.1588063,10.6197425 10.1588063,10.6197425 10.158408,10.440118 C10.1579632,10.220446 10.1578258,10.0390732 10.1580705,9.90880553 C10.158331,9.80804696 10.158331,9.80804696 10.1588916,9.73780681 C10.1592378,9.70909889 10.1592378,9.70909889 10.1598867,9.68454338 C10.1599859,9.67854864 10.1600359,9.67552822 10.1605924,9.66849352 Z" id="Path"></path>
                            </g>
                        </g>
                        <g id="camera-ic" transform="translate(384.000000, 64.000000)">
                            <circle id="Oval" cx="22" cy="22" r="22"></circle>
                            <path d="M22.1117021,17.212766 C18.912633,17.212766 16.3191489,19.8057234 16.3191489,23.0053191 C16.3191489,26.2038617 18.912633,28.7978723 22.1117021,28.7978723 C25.3107713,28.7978723 27.9042553,26.2038617 27.9042553,23.0053191 C27.9042553,19.8051968 25.3107713,17.212766 22.1117021,17.212766 L22.1117021,17.212766 Z M22.1117021,27.7446809 C19.4939947,27.7446809 17.3723404,25.6230266 17.3723404,23.0053191 C17.3723404,20.3876117 19.4939947,18.2659574 22.1117021,18.2659574 C24.7294096,18.2659574 26.8510638,20.3876117 26.8510638,23.0053191 C26.8510638,25.6230266 24.7294096,27.7446809 22.1117021,27.7446809 L22.1117021,27.7446809 Z M32.1170213,15.106383 L27.3776596,15.106383 C27.3776596,15.106383 26.7852394,15.0405585 26.3244681,14.5797872 L25.2712766,13.5265957 C25.2712766,13.5265957 24.9089787,13 24.2180851,13 L20.0053191,13 C19.3633989,13 18.9521277,13.5265957 18.9521277,13.5265957 L17.8989362,14.5797872 C17.4381649,15.0405585 16.8457447,15.106383 16.8457447,15.106383 L15.7925532,15.106383 C15.7925532,14.5244947 15.3207234,14.0531915 14.7393617,14.0531915 L13.6861702,14.0531915 C13.1048085,14.0531915 12.6329787,14.5244947 12.6329787,15.106383 L12.106383,15.106383 C10.943133,15.106383 10,16.049516 10,17.212766 L10,28.7978723 C10,29.9611223 10.943133,30.9042553 12.106383,30.9042553 L32.1170213,30.9042553 C33.2802713,30.9042553 34.2234043,29.9611223 34.2234043,28.7978723 L34.2234043,17.212766 C34.2234043,16.049516 33.2802713,15.106383 32.1170213,15.106383 L32.1170213,15.106383 Z M33.1702128,28.7978723 C33.1702128,29.379234 32.698383,29.8510638 32.1170213,29.8510638 L12.106383,29.8510638 C11.5250213,29.8510638 11.0531915,29.379234 11.0531915,28.7978723 L11.0531915,17.212766 C11.0531915,16.6308777 11.5250213,16.1595745 12.106383,16.1595745 L13.6651064,16.1574681 C13.6724787,16.1574681 13.6787979,16.1595745 13.6861702,16.1595745 L14.7393617,16.1595745 C14.752,16.1595745 14.7635851,16.1564149 14.7756968,16.1553617 L16.9615957,16.1522021 C17.1222074,16.1348245 17.9563351,16.0110745 18.643016,15.3243936 L19.7420213,14.2248617 L19.781516,14.1743085 C19.8073191,14.1463989 19.9242234,14.0531915 20.0047926,14.0531915 L24.2175585,14.0531915 C24.3207713,14.0531915 24.4023936,14.1221755 24.4029202,14.1232287 L24.4576862,14.2022181 L25.5793351,15.3243936 C26.2665426,16.0116011 27.1006702,16.1348245 27.2607553,16.1522021 L32.1164947,16.1595745 C32.6978564,16.1595745 33.1696862,16.6308777 33.1696862,17.212766 L33.1696862,28.7978723 L33.1702128,28.7978723 Z M22.1117021,20.3723404 C20.6577713,20.3723404 19.4787234,21.5508617 19.4787234,23.0053191 C19.4787234,24.4597766 20.6577713,25.6382979 22.1117021,25.6382979 C23.565633,25.6382979 24.7446809,24.4597766 24.7446809,23.0053191 C24.7446809,21.5508617 23.565633,20.3723404 22.1117021,20.3723404 L22.1117021,20.3723404 Z M22.1117021,24.5851064 C21.239133,24.5851064 20.5319149,23.8773617 20.5319149,23.0053191 C20.5319149,22.1322234 21.239133,21.4255319 22.1117021,21.4255319 C22.9842713,21.4255319 23.6914894,22.1322234 23.6914894,23.0053191 C23.6914894,23.8773617 22.9842713,24.5851064 22.1117021,24.5851064 L22.1117021,24.5851064 Z M14.7393617,17.212766 L12.6329787,17.212766 C12.3422979,17.212766 12.106383,17.4481543 12.106383,17.7393617 L12.106383,18.7925532 C12.106383,19.0837606 12.3422979,19.3191489 12.6329787,19.3191489 L14.7393617,19.3191489 C15.0300426,19.3191489 15.2659574,19.0837606 15.2659574,18.7925532 L15.2659574,17.7393617 C15.2659574,17.4481543 15.0300426,17.212766 14.7393617,17.212766 L14.7393617,17.212766 Z" fill="#FFFFFF"></path>
                        </g>
                        <g id="spinner-light" transform="translate(448.000000, 64.000000)" fill="#FFFFFF">
                            <path d="M25.3243011,13.8006989 C19.38724,13.8006989 14.5743011,18.6136379 14.5743011,24.5506989 C14.5743011,30.48776 19.38724,35.3006989 25.3243011,35.3006989 L25.3243011,34.3006989 C19.9395247,34.3006989 15.5743011,29.9354753 15.5743011,24.5506989 C15.5743011,19.1659226 19.9395247,14.8006989 25.3243011,14.8006989 L25.3243011,13.8006989 Z" id="spinner" transform="translate(19.949301, 24.550699) rotate(-45.000000) translate(-19.949301, -24.550699) "></path>
                        </g>
                        <g id="spinner-arrows-light" transform="translate(512.000000, 64.000000)" fill="#FFFFFF">
                            <path d="M31.1679126,18 C29.6247994,14.4681904 26.1006381,12 22,12 C16.4771525,12 12,16.4771525 12,22 L11,22 C11,15.9248678 15.9248678,11 22,11 C26.4372033,11 30.260779,13.6272521 32,17.4110294 L32,14.5 L33,14.5 L33,19 L32.585935,19 L31.5421977,19 L28.5,19 L28.5,18 L31.1679126,18 Z M12.4578023,25 L15.5,25 L15.5,26 L12.8320874,26 C14.3752006,29.5318096 17.8993619,32 22,32 C27.5228475,32 32,27.5228475 32,22 L33,22 C33,28.0751322 28.0751322,33 22,33 C17.5627967,33 13.739221,30.3727479 12,26.5889706 L12,29.5 L11,29.5 L11,25 L11.414065,25 L12.4578023,25 Z" id="Combined-Shape"></path>
                        </g>
                        <g id="checked-light" transform="translate(576.000000, 64.000000)" fill="#FFFFFF">
                            <path d="M31.1679126,18 C29.6247994,14.4681904 26.1006381,12 22,12 C16.4771525,12 12,16.4771525 12,22 L11,22 C11,15.9248678 15.9248678,11 22,11 C26.4372033,11 30.260779,13.6272521 32,17.4110294 L32,14.5 L33,14.5 L33,19 L32.585935,19 L31.5421977,19 L28.5,19 L28.5,18 L31.1679126,18 Z M12.4578023,25 L15.5,25 L15.5,26 L12.8320874,26 C14.3752006,29.5318096 17.8993619,32 22,32 C27.5228475,32 32,27.5228475 32,22 L33,22 C33,28.0751322 28.0751322,33 22,33 C17.5627967,33 13.739221,30.3727479 12,26.5889706 L12,29.5 L11,29.5 L11,25 L11.414065,25 L12.4578023,25 Z" id="Combined-Shape"></path>
                            <path d="M19.5,22.5 L25.5,22.5 L25.5,23.5 L18.5,23.5 L18.5,22.5 L18.5,19.5 L19.5,19.5 L19.5,22.5 Z" id="Combined-Shape" transform="translate(22.000000, 21.500000) rotate(-45.000000) translate(-22.000000, -21.500000) "></path>
                        </g>
                        <g id="cross-light" transform="translate(640.000000, 64.000000)" fill="#FFFFFF">
                            <path d="M31.1679126,18 C29.6247994,14.4681904 26.1006381,12 22,12 C16.4771525,12 12,16.4771525 12,22 L11,22 C11,15.9248678 15.9248678,11 22,11 C26.4372033,11 30.260779,13.6272521 32,17.4110294 L32,14.5 L33,14.5 L33,19 L32.585935,19 L31.5421977,19 L28.5,19 L28.5,18 L31.1679126,18 Z M12.4578023,25 L15.5,25 L15.5,26 L12.8320874,26 C14.3752006,29.5318096 17.8993619,32 22,32 C27.5228475,32 32,27.5228475 32,22 L33,22 C33,28.0751322 28.0751322,33 22,33 C17.5627967,33 13.739221,30.3727479 12,26.5889706 L12,29.5 L11,29.5 L11,25 L11.414065,25 L12.4578023,25 Z" id="Combined-Shape"></path>
                            <path d="M21.4983082,21.4982471 L21.4983082,18.2482471 L22.4983082,18.2482471 L22.4983082,21.4982471 L25.7483082,21.4982471 L25.7483082,22.4982471 L22.4983082,22.4982471 L22.4983082,25.7482471 L21.4983082,25.7482471 L21.4983082,22.4982471 L18.2483082,22.4982471 L18.2483082,21.4982471 L21.4983082,21.4982471 Z" id="Combined-Shape" transform="translate(21.998308, 21.998247) rotate(45.000000) translate(-21.998308, -21.998247) "></path>
                        </g>
                        <g id="attention-big-light" transform="translate(0.000000, 128.000000)" fill="#FFFFFF">
                            <path d="M22,33 C15.9248678,33 11,28.0751322 11,22 C11,15.9248678 15.9248678,11 22,11 C28.0751322,11 33,15.9248678 33,22 C33,28.0751322 28.0751322,33 22,33 Z M22,32 C27.5228475,32 32,27.5228475 32,22 C32,16.4771525 27.5228475,12 22,12 C16.4771525,12 12,16.4771525 12,22 C12,27.5228475 16.4771525,32 22,32 Z" id="Combined-Shape"></path>
                            <path d="M21.3,24.8 L22.8,24.8 L22.8,26.3 L21.3,26.3 L21.3,24.8 Z M21.3,17.8 L22.8,17.8 L22.8,23.3 L21.3,23.3 L21.3,17.8 Z" id="Combined-Shape"></path>
                        </g>
                        <g id="statistics-ic" transform="translate(64.000000, 128.000000)">
                            <circle id="Oval" cx="22" cy="22" r="22"></circle>
                            <polygon id="Fill-164" fill="#FFFFFF" points="17 30 17 20 14 20 14 30 13 30 13 19 18 19 18 30"></polygon>
                            <polygon id="Fill-165" fill="#FFFFFF" points="23.5 30 23.5 17 20.5 17 20.5 30 19.5 30 19.5 16 24.5 16 24.5 30"></polygon>
                            <polygon id="Fill-166" fill="#FFFFFF" points="30 30 30 14 27 14 27 30 26 30 26 13 31 13 31 30"></polygon>
                            <polygon id="Fill-167" fill="#FFFFFF" points="11 30 33 30 33 31 11 31"></polygon>
                        </g>
                        <g id="games-store-ic" transform="translate(128.000000, 128.000000)">
                            <circle id="Oval" cx="22" cy="22" r="22"></circle>
                            <path d="M31,14 L28,14 L28,13.5 C28,12.672 28.6715,12 29.5,12 L29.5,12 C29.776,12 30,11.7765 30,11.5 C30,11.2235 29.776,11 29.5,11 L14.5,11 L14.5,11 C14.224,11 14,11.2235 14,11.5 C14,11.7765 14.224,12 14.5,12 L14.5,12 C15.3285,12 16,12.672 16,13.5 L16,14 L13,14 C12.724,14 12.5,14.2235 12.5,14.5 L12.5,15.5 C12.5,17.4325 14.067,19 16,19 C16,21.795 17.9135,24.1355 20.5,24.8025 L20.5,30 L17.5,30 C17.224,30 17,30.2235 17,30.5 C17,30.7765 17.224,31 17.5,31 L26.5,31 C26.776,31 27,30.7765 27,30.5 C27,30.2235 26.776,30 26.5,30 L23.5,30 L23.5,24.8025 C26.0865,24.1355 28,21.7945 28,19 C29.933,19 31.5,17.4325 31.5,15.5 L31.5,14.5 C31.5,14.2235 31.276,14 31,14 L31,14 Z M16,18 C14.6195,18 13.5,16.881 13.5,15.5 L13.5,15 L16,15 L16,18 L16,18 Z M22.5,30 L21.5,30 L21.5,24.9745 C21.6655,24.988 21.8315,25 22,25 C22.1685,25 22.3345,24.9885 22.5,24.9745 L22.5,30 L22.5,30 Z M27,13.5 L27,19 C27,21.7605 24.7615,24 22,24 C19.2385,24 17,21.7605 17,19 L17,13.5 C17,12.9345 16.805,12.419 16.489,12 L27.5115,12 C27.195,12.4185 27,12.9345 27,13.5 L27,13.5 Z M30.5,15.5 C30.5,16.881 29.3805,18 28,18 L28,15 L30.5,15 L30.5,15.5 L30.5,15.5 Z M28,32 L16,32 C15.724,32 15.5,32.2235 15.5,32.5 C15.5,32.7765 15.724,33 16,33 L28,33 C28.276,33 28.5,32.7765 28.5,32.5 C28.5,32.2235 28.276,32 28,32 L28,32 Z" id="trophy-ic" fill="#FFFFFF"></path>
                        </g>
                        <g id="wallet-settings-ic" transform="translate(192.000000, 128.000000)">
                            <circle id="Oval" cx="22" cy="22" r="22"></circle>
                            <path d="M19.2716935,17.4970506 C19.2673672,17.4885816 19.2630436,17.4800883 19.2587231,17.4715704 C19.1910991,17.3382485 19.0904271,17.2301691 18.9761368,17.1428516 C18.9132385,17.0456238 18.8783875,16.871521 18.9819775,16.6894908 C19.074226,16.6358038 19.2587231,16.5284296 19.2587231,16.5284296 C19.2763915,16.518153 19.2938866,16.507692 19.3112074,16.4970506 L28.234,16.4970506 L27.5395,14.5875506 L27.0085,13.1255506 L25.984,13.4970506 L23.222,14.4970506 L20.1753105,15.6011236 C20.5309801,14.9713074 20.6055654,14.200399 20.3447247,13.4970506 L23.086,13.4970506 L27.135,12.0300506 C27.392,11.9365506 27.676,12.0685506 27.769,12.3245506 L28.196,13.4970506 L30.0005,13.4970506 C31.105,13.4970506 32.0005,14.3925506 32.0005,15.4970506 L32.0005,16.4970506 C33.105,16.4970506 34.0005,17.3925506 34,18.4970506 L34,29.9970506 C34,31.3775506 32.881,32.4970506 31.5,32.4970506 L13.5,32.4970506 C12.119,32.4970506 11,31.3775506 11,29.9970506 L11,26 L12.0005,26 L12.0005,29.9970506 C12.0005,30.8255506 12.6725,31.4970506 13.5005,31.4970506 L31.5005,31.4970506 C32.3295,31.4970506 33.0005,30.8255506 33.0005,29.9970506 L33.0005,26.4970506 L31.0005,26.4970506 C29.896,26.4970506 29.0005,25.6015506 29.0005,24.4970506 C29.0005,23.3925506 29.896,22.4970506 31.0005,22.4970506 L33.0005,22.4970506 L33.0005,18.4970506 C33.0005,17.9450506 32.553,17.4970506 32.0005,17.4970506 L19.2716927,17.4970506 Z M31.0005,15.4970506 C31.0005,14.9450506 30.553,14.4970506 30.0005,14.4970506 L28.559,14.4970506 L29.2865,16.4970506 L31.0005,16.4970506 L31.0005,15.4970506 Z M31.0005,25.4970506 L33.0005,25.4970506 L33.0005,23.4970506 L31.0005,23.4970506 C30.4485,23.4970506 30.0005,23.9450506 30.0005,24.4970506 C30.0005,25.0490506 30.4485,25.4970506 31.0005,25.4970506 Z M32.0005,24.9970506 L31.0005,24.9970506 L31.0005,23.9970506 L32.0005,23.9970506 L32.0005,24.9970506 Z" id="cropped-wallet" fill="#FFFFFF"></path>
                            <path d="M17.7601936,20.067 L17.264174,20.933 C17.1271685,21.1725 16.8241565,21.254 16.5866471,21.116 L15.2090925,20.314 C14.5100648,21.1095 13.5645273,21.6795 12.4914847,21.8995 L12.4914847,23 C12.4914847,23.2765 12.2699759,23.5 11.9959651,23.5 L11.0039257,23.5 C10.7299149,23.5 10.5084061,23.2765 10.5084061,23 L10.5084061,21.8995 C9.43536353,21.6795 8.48982604,21.1095 7.79079832,20.314 L6.4132437,21.116 C6.17573428,21.254 5.87272227,21.1725 5.73571683,20.933 L5.23969716,20.067 C5.10269173,19.828 5.18419496,19.522 5.42120436,19.3845 L6.8042592,18.5785 C6.63975268,18.0815 6.54124877,17.553 6.54124877,17 C6.54124877,16.447 6.63975268,15.919 6.8042592,15.4215 L5.42120436,14.616 C5.18419496,14.478 5.10269173,14.1725 5.23969716,13.933 L5.73571683,13.067 C5.87272227,12.828 6.17573428,12.746 6.4132437,12.884 L7.79079832,13.686 C8.48982604,12.8905 9.43536353,12.3205 10.5084061,12.1005 L10.5084061,11 C10.5084061,10.7235 10.7299149,10.5 11.0039257,10.5 L11.9959651,10.5 C12.2699759,10.5 12.4914847,10.7235 12.4914847,11 L12.4914847,12.1005 C13.5645273,12.3205 14.5100648,12.8905 15.2090925,13.686 L16.5866471,12.884 C16.8241565,12.746 17.1271685,12.828 17.264174,13.067 L17.7601936,13.933 C17.8971991,14.1725 17.8156958,14.478 17.5786864,14.616 L16.1956316,15.4215 C16.3601381,15.919 16.458642,16.447 16.458642,17 C16.458642,17.553 16.3601381,18.0815 16.1956316,18.5785 L17.5786864,19.3845 C17.8156958,19.522 17.8971991,19.828 17.7601936,20.067 L17.7601936,20.067 Z M18.5042231,18.768 L17.3426771,18.092 C17.4076797,17.737 17.4506814,17.3745 17.4506814,17 C17.4506814,16.626 17.4076797,16.263 17.3426771,15.908 L18.5042231,15.232 C18.978742,14.956 19.1407484,14.344 18.8667375,13.866 L17.8751982,12.134 C17.6016874,11.656 16.9946633,11.4915 16.5206445,11.768 L15.3470979,12.4505 C14.7990762,11.9805 14.1760515,11.596 13.4835241,11.3485 L13.4835241,10.5 C13.4835241,9.948 13.0395064,9.5 12.4914847,9.5 L10.5084061,9.5 C9.96038435,9.5 9.51636675,9.948 9.51636675,10.5 L9.51636675,11.3485 C8.82383929,11.596 8.20081458,11.9805 7.65279285,12.4505 L6.47924632,11.768 C6.00522752,11.4915 5.39820345,11.656 5.1246926,12.134 L4.13315329,13.866 C3.85914242,14.344 4.02164887,14.956 4.49566766,15.232 L5.65721372,15.908 C5.59221114,16.263 5.54920944,16.626 5.54920944,17 C5.54920944,17.3745 5.59221114,17.737 5.65721372,18.092 L4.49566766,18.768 C4.02164887,19.044 3.85914242,19.656 4.13315329,20.134 L5.1246926,21.866 C5.39820345,22.344 6.00522752,22.5085 6.47924632,22.232 L7.65279285,21.5495 C8.20081458,22.0195 8.82383929,22.4045 9.51636675,22.6515 L9.51636675,23.5 C9.51636675,24.052 9.96038435,24.5 10.5084061,24.5 L12.4914847,24.5 C13.0395064,24.5 13.4835241,24.052 13.4835241,23.5 L13.4835241,22.6515 C14.1760515,22.4045 14.7990762,22.0195 15.3470979,21.5495 L16.5206445,22.232 C16.9946633,22.5085 17.6016874,22.344 17.8751982,21.866 L18.8667375,20.134 C19.1407484,19.656 18.978742,19.044 18.5042231,18.768 L18.5042231,18.768 Z M11.4999454,18.5 C10.6784128,18.5 10.0123864,17.8285 10.0123864,17 C10.0123864,16.172 10.6784128,15.5 11.4999454,15.5 C12.321478,15.5 12.9875044,16.172 12.9875044,17 C12.9875044,17.8285 12.321478,18.5 11.4999454,18.5 L11.4999454,18.5 Z M11.4999454,14.5 C10.1303911,14.5 9.0208471,15.619 9.0208471,17 C9.0208471,18.381 10.1303911,19.5 11.4999454,19.5 C12.8694997,19.5 13.9795437,18.381 13.9795437,17 C13.9795437,15.619 12.8694997,14.5 11.4999454,14.5 L11.4999454,14.5 Z" id="settings" fill="#FFFFFF"></path>
                        </g>
                        <g id="menu-opened-ic" transform="translate(256.000000, 128.000000)">
                            <rect id="Rectangle-10" x="0" y="0" width="44" height="44"></rect>
                            <path d="M9.5,14 L29.5,14 L29.5,15.5 L9.5,15.5 L9.5,14 Z M14.5,21.5 L34.5,21.5 L34.5,23 L14.5,23 L14.5,21.5 Z M9.5,29 L29.5,29 L29.5,30.5 L9.5,30.5 L9.5,29 Z" id="Combined-Shape" fill="#FFFFFF"></path>
                        </g>
                        <g id="menu-ic" transform="translate(320.000000, 128.000000)">
                            <rect id="Rectangle-10" x="0" y="0" width="44" height="44"></rect>
                            <path d="M12,14 L32,14 L32,15.5 L12,15.5 L12,14 Z M12,21.5 L32,21.5 L32,23 L12,23 L12,21.5 Z M12,29 L32,29 L32,30.5 L12,30.5 L12,29 Z" id="Combined-Shape" fill="#FFFFFF"></path>
                        </g>
                    </g>
                    <g id="checkbox+radio" transform="translate(10.000000, 212.000000)">
                        <text id="Checkbox-selected" font-family="SFUIText-Light, SF UI  Text" font-size="16" font-weight="300" line-spacing="22" fill="#FFFFFF">
                            <tspan x="43" y="58.5">Checkbox selected</tspan>
                        </text>
                        <g id="checkbox-checked" transform="translate(0.000000, 43.000000)">
                            <rect id="bg" stroke="#FFFFFF" fill="#FFFFFF" x="0.5" y="0.5" width="22" height="22" rx="3"></rect>
                            <polygon id="ic-check" fill="#121326" points="9.13636364 14.4104478 6.03409091 11.2761194 5 12.3208955 9.13636364 16.5 18 7.54477612 16.9659091 6.5"></polygon>
                        </g>
                        <text id="Checkbox" font-family="SFUIText-Light, SF UI  Text" font-size="16" font-weight="300" line-spacing="22" fill="#FFFFFF">
                            <tspan x="43" y="15.5">Checkbox</tspan>
                        </text>
                        <g id="checkbox-unchecked" stroke="#FFFFFF">
                            <rect id="bg" x="0.5" y="0.5" width="22" height="22" rx="3"></rect>
                        </g>
                        <text id="Radio-button-selecte" font-family="SFUIText-Light, SF UI  Text" font-size="16" font-weight="300" line-spacing="22" fill="#FFFFFF">
                            <tspan x="259.5" y="58.5">Radio button selected</tspan>
                        </text>
                        <g id="radio-checked" transform="translate(216.500000, 43.000000)">
                            <rect id="bg" stroke="#FFFFFF" fill="#FFFFFF" x="0.5" y="0.5" width="22" height="22" rx="11"></rect>
                            <circle id="Oval" fill="#121326" cx="11.5" cy="11.5" r="3.5"></circle>
                        </g>
                        <text id="Radio-button" font-family="SFUIText-Light, SF UI  Text" font-size="16" font-weight="300" line-spacing="22" fill="#FFFFFF">
                            <tspan x="259.5" y="15.5">Radio button</tspan>
                        </text>
                        <g id="radio-unchecked" transform="translate(216.500000, 0.000000)" stroke="#FFFFFF">
                            <rect id="bg" x="0.5" y="0.5" width="22" height="22" rx="11"></rect>
                        </g>
                    </g>
                    <g id="switches" transform="translate(10.000000, 318.000000)">
                        <g id="switch-text-horizontal">
                            <rect id="input-field" stroke="#FFFFFF" opacity="0.300000012" x="0.5" y="0.5" width="267" height="49" rx="2"></rect>
                            <rect id="Base" fill="#FFFFFF" opacity="0.300000012" x="89" y="1" width="90" height="48"></rect>
                            <text id="Center" font-family="SFUIText-Regular, SF UI  Text" font-size="16" font-weight="normal" line-spacing="22" fill="#FFFFFF">
                                <tspan x="108.742188" y="30">Center</tspan>
                            </text>
                            <text id="Right" opacity="0.699999988" font-family="SFUIText-Light, SF UI  Text" font-size="16" font-weight="300" line-spacing="22" fill="#FFFFFF">
                                <tspan x="204.050781" y="29">Right</tspan>
                            </text>
                            <text id="Left" opacity="0.699999988" font-family="SFUIText-Light, SF UI  Text" font-size="16" font-weight="300" line-spacing="22" fill="#FFFFFF">
                                <tspan x="29.5820312" y="29">Left</tspan>
                            </text>
                        </g>
                        <g id="switch-text-vertical" transform="translate(0.000000, 70.000000)">
                            <rect id="input-field" stroke="#FFFFFF" opacity="0.300000012" x="0.5" y="0.5" width="267" height="149" rx="2"></rect>
                            <rect id="Base" fill="#FFFFFF" opacity="0.300000012" x="1" y="50" width="266" height="50"></rect>
                            <text id="Middle" font-family="SFUIText-Regular, SF UI  Text" font-size="16" font-weight="normal" line-spacing="22" fill="#FFFFFF">
                                <tspan x="108.625" y="79">Middle</tspan>
                            </text>
                            <text id="Bottom" opacity="0.699999988" font-family="SFUIText-Light, SF UI  Text" font-size="16" font-weight="300" line-spacing="22" fill="#FFFFFF">
                                <tspan x="106.832031" y="129">Bottom</tspan>
                            </text>
                            <text id="Top" opacity="0.699999988" font-family="SFUIText-Light, SF UI  Text" font-size="16" font-weight="300" line-spacing="22" fill="#FFFFFF">
                                <tspan x="119.679688" y="29">Top</tspan>
                            </text>
                        </g>
                        <g id="switch-on" transform="translate(288.000000, 43.000000)">
                            <g>
                                <rect id="bg" fill="#FFFFFF" x="0" y="0" width="50" height="23" rx="3"></rect>
                                <rect id="switch" fill="#121326" x="28.5" y="1.5" width="20" height="20" rx="2"></rect>
                            </g>
                            <text id="Switch-on" font-family="SFUIText-Light, SF UI  Text" font-size="16" font-weight="300" line-spacing="22" fill="#FFFFFF">
                                <tspan x="70" y="15.5">Switch on</tspan>
                            </text>
                        </g>
                        <g id="switch-off" transform="translate(288.000000, 0.000000)">
                            <g>
                                <rect id="bg" fill="#FFFFFF" opacity="0.300000012" x="0" y="0" width="50" height="23" rx="3"></rect>
                                <rect id="switch" fill="#121326" x="1.5" y="1.5" width="20" height="20" rx="2"></rect>
                            </g>
                            <text id="Switch-off" font-family="SFUIText-Light, SF UI  Text" font-size="16" font-weight="300" line-spacing="22" fill="#FFFFFF">
                                <tspan x="70" y="15.5">Switch off</tspan>
                            </text>
                        </g>
                        <g id="dropdown" transform="translate(288.000000, 86.000000)">
                            <rect id="input-field" stroke="#FFFFFF" opacity="0.300000012" x="0.5" y="0.5" width="72" height="49" rx="2"></rect>
                            <rect id="Rectangle-5" fill="#FFFFFF" opacity="0.300000012" x="47.5" y="1" width="1" height="48"></rect>
                            <rect id="Rectangle-5-Copy" fill="#FFFFFF" opacity="0.300000012" x="48.5" y="24.5" width="23.5" height="1"></rect>
                            <polygon id="expand-arrow" fill="#FFFFFF" opacity="0.5" points="60.5 37.9 57.875 35.5 57 36.3 60.0625 39.1 60.5 39.5 64 36.3 63.125 35.5"></polygon>
                            <polygon id="expand-arrow-top" fill="#FFFFFF" opacity="0.5" transform="translate(60.500000, 12.500000) scale(1, -1) translate(-60.500000, -12.500000) " points="60.5 12.9 57.875 10.5 57 11.3 60.0625 14.1 60.5 14.5 64 11.3 63.125 10.5"></polygon>
                            <text id="1" font-family="SFUIText-Regular, SF UI  Text" font-size="16" font-weight="normal" line-spacing="22" fill="#FFFFFF">
                                <tspan x="20" y="29">1</tspan>
                            </text>
                        </g>
                    </g>
                    <g id="dropdowns" transform="translate(10.000000, 578.000000)">
                        <g id="dropdown" transform="translate(0.000000, 114.000000)">
                            <rect id="input-field" stroke="#FFFFFF" opacity="0.300000012" x="0.5" y="0.5" width="267" height="49" rx="2"></rect>
                            <polygon id="expand-arrow" fill="#FFFFFF" opacity="0.300000012" points="242.25 25.7 237.9375 21.5 236.5 22.9 241.53125 27.8 242.25 28.5 248 22.9 246.5625 21.5"></polygon>
                            <text id="Dropdown" opacity="0.5" font-family="SFUIText-Light, SF UI  Text" font-size="16" font-weight="300" line-spacing="22" fill="#FFFFFF">
                                <tspan x="20" y="29">Dropdown</tspan>
                            </text>
                        </g>
                        <g id="dropdown-hover" transform="translate(0.000000, 184.000000)">
                            <rect id="input-field" stroke="#FFFFFF" opacity="0.5" x="0.5" y="0.5" width="267" height="49" rx="2"></rect>
                            <polygon id="expand-arrow-copy" fill="#FFFFFF" opacity="0.400000006" points="242.25 25.7 237.9375 21.5 236.5 22.9 241.53125 27.8 242.25 28.5 248 22.9 246.5625 21.5"></polygon>
                            <text id="Dropdown-hover" opacity="0.699999988" font-family="SFUIText-Light, SF UI  Text" font-size="16" font-weight="300" line-spacing="22" fill="#FFFFFF">
                                <tspan x="20" y="29">Dropdown hover</tspan>
                            </text>
                        </g>
                        <g id="dropdown-selected" transform="translate(0.000000, 254.000000)">
                            <rect id="input-field" stroke="#FFFFFF" opacity="0.5" x="0.5" y="0.5" width="267" height="49" rx="2"></rect>
                            <polygon id="expand-arrow-copy-2" fill="#FFFFFF" opacity="0.699999988" points="242.25 25.7 237.9375 21.5 236.5 22.9 241.53125 27.8 242.25 28.5 248 22.9 246.5625 21.5"></polygon>
                            <text id="Dropdown-selected" opacity="0.800000012" font-family="SFUIText-Regular, SF UI  Text" font-size="16" font-weight="normal" line-spacing="22" fill="#FFFFFF">
                                <tspan x="20" y="29">Dropdown selected</tspan>
                            </text>
                        </g>
                        <g id="dropdown-disabled" transform="translate(0.000000, 324.000000)" fill="#FFFFFF">
                            <rect id="input-field" stroke="#FFFFFF" opacity="0.049999997" x="0.5" y="0.5" width="267" height="49" rx="2"></rect>
                            <polygon id="expand-arrow-copy-3" opacity="0.300000012" points="242.25 25.7 237.9375 21.5 236.5 22.9 241.53125 27.8 242.25 28.5 248 22.9 246.5625 21.5"></polygon>
                            <text id="Dropdown-disabled" opacity="0.300000012" font-family="SFUIText-Light, SF UI  Text" font-size="16" font-weight="300" line-spacing="22">
                                <tspan x="20" y="29">Dropdown disabled</tspan>
                            </text>
                        </g>
                        <g id="dropdown-hover" transform="translate(298.000000, 114.000000)">
                            <rect id="input-field" stroke="#FFFFFF" x="0.5" y="0.5" width="267" height="49" rx="2"></rect>
                            <g id="expand-arrow-up" transform="translate(236.500000, 21.500000)" fill="#FFFFFF">
                                <polygon transform="translate(5.750000, 3.500000) scale(1, -1) translate(-5.750000, -3.500000) " points="1.4375 -4.61852778e-13 -2.27373675e-13 1.4 5.03125 6.3 5.75 7 11.5 1.4 10.0625 -4.61852778e-13 5.75 4.2"></polygon>
                            </g>
                            <text id="Dropdown-active" font-family="SFUIText-Regular, SF UI  Text" font-size="16" font-weight="normal" line-spacing="22" fill="#FFFFFF">
                                <tspan x="20" y="29">Dropdown active</tspan>
                            </text>
                        </g>
                        <g id="dropdown-list" transform="translate(298.000000, 175.000000)">
                            <mask id="mask-2" fill="white">
                                <use xlink:href="#path-1"></use>
                            </mask>
                            <g id="Combined-Shape"></g>
                            <rect id="line-2-hovered" fill="#FFFFFF" opacity="0.300000012" mask="url(#mask-2)" x="0" y="59" width="268" height="50"></rect>
                            <text id="Item" mask="url(#mask-2)" font-family="SFUIText-Regular, SF UI  Text" font-size="16" font-weight="normal" line-spacing="22" fill="#FFFFFF">
                                <tspan x="20" y="38">Item</tspan>
                            </text>
                            <text id="Item-hovered" mask="url(#mask-2)" font-family="SFUIText-Regular, SF UI  Text" font-size="16" font-weight="normal" line-spacing="22" fill="#FFFFFF">
                                <tspan x="20" y="88">Item hovered</tspan>
                            </text>
                            <text id="Item-selected" mask="url(#mask-2)" font-family="SFUIText-Regular, SF UI  Text" font-size="16" font-weight="normal" line-spacing="22" fill="#FFFFFF">
                                <tspan x="20" y="138">Item selected</tspan>
                            </text>
                            <text id="Item" mask="url(#mask-2)" font-family="SFUIText-Regular, SF UI  Text" font-size="16" font-weight="normal" line-spacing="22" fill="#FFFFFF">
                                <tspan x="20" y="188">Item</tspan>
                            </text>
                            <g id="selected-ic" mask="url(#mask-2)" fill="#FFFFFF">
                                <g transform="translate(233.000000, 126.500000)">
                                    <path d="M3.5,9.5 L13.5,9.5 L13.5,11.5 L1.5,11.5 L1.5,9.5 L1.5,3.5 L3.5,3.5 L3.5,9.5 Z" transform="translate(7.500000, 7.500000) rotate(-45.000000) translate(-7.500000, -7.500000) "></path>
                                </g>
                            </g>
                            <mask id="mask-4" fill="white">
                                <use xlink:href="#path-3"></use>
                            </mask>
                            <path stroke="#FFFFFF" d="M134,0.707106781 L125.207107,9.5 L2.00311327,9.5 C1.16965854,9.5 0.5,10.1682492 0.5,10.9956621 L0.5,207.004338 C0.5,207.831061 1.17185553,208.5 2.00311327,208.5 L265.996887,208.5 C266.830341,208.5 267.5,207.831751 267.5,207.004338 L267.5,10.9956621 C267.5,10.1689387 266.828144,9.5 265.996887,9.5 L142.792893,9.5 L134,0.707106781 Z"></path>
                        </g>
                        <g id="textarea">
                            <path d="M562,89 L562,88 L563,88 L563,89 L562,89 L562,89 Z M561,88 L561,87 L562,87 L562,88 L561,88 L561,88 Z M560,89 L560,88 L561,88 L561,89 L560,89 L560,89 Z M559,90 L559,89 L560,89 L560,90 L559,90 L559,90 Z M561,90 L561,91 L560,91 L560,90 L561,90 L561,90 Z M563,90 L563,91 L562,91 L562,90 L563,90 L563,90 Z M561,90 L561,89 L562,89 L562,90 L561,90 L561,90 Z M564,89 L564,90 L563,90 L563,89 L564,89 L564,89 Z M562,92 L561,92 L561,91 L562,91 L562,92 L562,92 Z M560,92 L559,92 L559,91 L560,91 L560,92 L560,92 Z M558,91 L558,90 L559,90 L559,91 L558,91 L558,91 Z M557,92 L557,91 L558,91 L558,92 L557,92 L557,92 Z M562,86 L563,86 L563,87 L562,87 L562,86 L562,86 Z M564,85 L564,86 L563,86 L563,85 L564,85 L564,85 Z M564,87 L564,88 L563,88 L563,87 L564,87 L564,87 Z" id="Corner" fill="#FFFFFF" opacity="0.5"></path>
                            <rect id="input-field" stroke="#FFFFFF" opacity="0.5" x="0.5" y="0.5" width="565" height="93" rx="2"></rect>
                            <text id="Good-news-everyone!" opacity="0.800000012" font-family="SFUIText-Regular, SF UI  Text" font-size="16" font-weight="normal" line-spacing="22" fill="#FFFFFF">
                                <tspan x="20" y="29">Good news everyone! Daedalus is here!</tspan>
                            </text>
                        </g>
                    </g>
                </g>
            </g>
        </g>
    </g>
</svg>