<?xml version="1.0" standalone="no"?>
<!DOCTYPE svg PUBLIC "-//W3C//DTD SVG 20010904//EN"
 "http://www.w3.org/TR/2001/REC-SVG-20010904/DTD/svg10.dtd">
<svg version="1.0" xmlns="http://www.w3.org/2000/svg"
 width="128.000000pt" height="128.000000pt" viewBox="0 0 128.000000 128.000000"
 preserveAspectRatio="xMidYMid meet">
<metadata>
Created by potrace 1.11, written by Peter Selinger 2001-2013
</metadata>
<g transform="translate(0.000000,128.000000) scale(0.100000,-0.100000)"
fill="#000000" stroke="none">
<path d="M0 1080 c0 -110 2 -200 4 -200 2 0 48 59 101 131 119 158 142 161 72
9 -26 -55 -47 -106 -47 -113 0 -7 27 -36 60 -65 33 -29 60 -57 60 -63 0 -23
-29 -4 -92 58 l-67 66 25 49 c13 26 22 48 20 48 -8 0 -96 -118 -96 -127 1 -4
45 -54 98 -111 l97 -103 70 17 c56 14 70 15 73 4 3 -9 10 -6 23 11 27 36 34
16 13 -35 -21 -52 -54 -64 -54 -21 0 30 4 29 -73 9 l-62 -16 -34 39 c-19 21
-70 75 -113 120 l-78 83 0 -435 0 -435 640 0 640 0 0 433 0 432 -113 -119
-112 -119 -59 17 c-60 18 -75 14 -76 -21 0 -7 -7 -13 -15 -13 -18 0 -56 81
-43 95 8 9 19 -1 32 -30 3 -6 9 -4 14 4 8 12 20 11 74 -4 l64 -17 71 74 c38
40 84 88 100 107 l30 35 -50 68 c-27 37 -51 68 -53 68 -2 0 8 -25 23 -55 l27
-55 -53 -54 c-53 -54 -96 -84 -106 -74 -3 3 24 34 60 69 l66 64 -51 109 c-31
67 -47 113 -41 119 5 5 39 -31 87 -95 42 -56 88 -116 101 -131 l23 -29 0 201
0 201 -640 0 -640 0 0 -200z m470 -245 c11 -13 6 -15 -34 -15 -25 0 -46 -2
-46 -5 0 -3 18 -21 40 -42 29 -25 38 -39 30 -47 -7 -7 -25 5 -60 39 -49 48
-50 48 -87 37 -23 -7 -41 -8 -47 -2 -13 13 38 32 109 40 33 4 65 8 71 8 6 1
17 -5 24 -13z m99 -19 c31 -32 30 -53 -2 -40 -8 3 -30 -2 -47 -11 -22 -12 -36
-13 -43 -6 -7 7 1 15 27 27 l36 18 -22 23 c-21 22 -21 23 -2 23 11 0 35 -15
53 -34z m202 10 c-22 -24 -22 -24 -3 -30 23 -8 48 -34 39 -42 -3 -3 -19 2 -37
11 -17 9 -39 15 -48 14 -9 -1 -23 -1 -29 0 -20 2 60 70 81 71 18 0 18 -2 -3
-24z m223 -3 c38 -20 21 -37 -21 -21 -30 11 -34 10 -82 -35 -47 -44 -71 -57
-71 -39 0 4 16 23 35 42 19 19 35 38 35 42 0 4 -21 8 -46 8 -38 0 -44 2 -35
14 15 17 143 10 185 -11z m-364 -234 c0 -132 -3 -170 -12 -167 -10 4 -14 46
-16 156 l-3 151 -26 -10 c-42 -16 -57 -30 -41 -40 7 -5 21 -6 31 -3 9 3 17 0
17 -6 0 -12 -63 -80 -74 -80 -12 0 -6 28 9 40 14 12 13 16 -6 36 -22 23 -22
24 -4 44 15 17 86 46 118 49 4 1 7 -76 7 -170z m50 132 c0 -22 7 -31 29 -41
28 -11 51 -8 51 8 0 4 -14 15 -31 24 -38 22 -30 44 9 24 15 -8 36 -21 47 -29
20 -15 20 -16 -2 -39 -21 -22 -21 -26 -8 -44 30 -40 5 -49 -27 -9 -11 14 -37
35 -59 45 -33 18 -39 25 -39 54 0 18 3 36 6 39 12 12 24 -4 24 -32z m-200 -63
c-1 -7 -7 -24 -15 -38 -24 -41 -18 -48 45 -55 l60 -7 0 -44 c0 -32 -4 -44 -15
-44 -10 0 -15 11 -15 35 0 24 -5 35 -15 35 -22 0 -18 -42 8 -81 12 -19 39 -42
60 -52 23 -12 37 -26 37 -38 0 -10 -2 -19 -4 -19 -12 0 -97 63 -110 81 -13 20
-15 20 -39 4 -25 -16 -26 -16 -41 14 -18 33 -21 81 -6 81 5 0 12 -16 16 -35 4
-20 12 -35 20 -35 20 0 25 19 16 55 -7 25 -15 31 -46 36 l-38 6 5 -48 c4 -32
18 -66 41 -101 23 -34 32 -56 26 -62 -5 -5 -11 -8 -13 -5 -1 2 -19 29 -39 59
-29 44 -38 69 -43 121 l-7 67 25 -5 c22 -4 28 1 46 41 19 43 41 62 41 34z
m372 -45 c11 -31 16 -34 41 -29 27 5 28 4 23 -22 -3 -15 -8 -47 -12 -71 -6
-43 -67 -151 -85 -151 -18 0 -8 28 23 71 21 28 34 61 38 92 l7 48 -41 -3 c-39
-3 -41 -5 -47 -40 -4 -28 -2 -39 9 -43 18 -7 32 11 32 43 0 13 6 22 16 22 17
0 15 -26 -7 -82 -11 -26 -12 -27 -39 -13 -25 13 -29 12 -46 -6 -34 -38 -104
-80 -110 -66 -2 7 -3 74 -2 148 4 170 22 177 26 9 1 -66 5 -120 8 -120 3 0 19
9 34 20 28 20 69 104 57 116 -14 15 -37 -7 -37 -36 0 -16 -4 -30 -10 -30 -5 0
-10 20 -10 44 l0 44 53 7 c28 4 56 9 60 12 4 3 -1 20 -13 40 -11 19 -18 39
-14 44 9 15 32 -8 46 -48z m-336 -233 c19 -16 52 -35 74 -41 l40 -12 0 -63 c0
-57 -2 -63 -22 -66 -23 -3 -22 -4 4 -22 27 -18 29 -18 56 0 26 18 27 19 5 22
-21 3 -23 9 -23 63 l0 59 65 29 c36 17 68 37 71 45 6 17 34 22 34 7 0 -16 -67
-69 -104 -82 -42 -15 -43 -20 -14 -54 34 -39 65 -33 79 15 7 22 18 40 26 40
17 0 16 -11 -3 -60 -13 -32 -22 -41 -48 -45 -21 -4 -37 -16 -48 -35 -30 -53
-106 -52 -136 0 -11 20 -28 32 -48 36 -25 5 -34 13 -43 42 -7 21 -15 43 -17
50 -3 6 1 12 9 12 8 0 21 -18 30 -40 18 -47 48 -53 78 -17 26 32 23 44 -14 56
-40 13 -109 69 -102 82 9 14 14 12 51 -21z"/>
<path d="M590 239 c0 -5 5 -7 10 -4 6 3 10 8 10 11 0 2 -4 4 -10 4 -5 0 -10
-5 -10 -11z"/>
</g>
</svg>
